<svg width="137" height="56" viewBox="0 0 137 56" fill="none" xmlns="http://www.w3.org/2000/svg">
<g clip-path="url(#clip0)">
<path d="M0 55.1704L19.4963 0L35.8815 0L38.163 54.963H24.8889L25.3037 46.0445H15.3481L14.5185 54.963L0 55.1704Z" fill="white"/>
<path d="M18.459 33.8074L25.5108 13.0667V33.8074H18.459Z" fill="#13131E"/>
<path d="M48.1194 0L40.4453 54.1333H53.9268L56.8305 36.0889L61.8083 54.1333H75.912L66.9934 26.3407L82.549 0L68.0305 0L59.5268 17.837L59.9416 0L48.1194 0Z" fill="white"/>
<path d="M103.912 0L97.4824 53.7185H107.853L111.794 22.8148L115.112 53.7185H128.386L136.89 0L125.275 0L119.675 30.4889L120.505 0L103.912 0Z" fill="white"/>
<path d="M85.6589 0L78.8145 54.1333H91.0515L98.3107 0L85.6589 0Z" fill="white"/>
</g>
<defs>
<clipPath id="clip0">
<rect width="136.889" height="56" fill="white"/>
</clipPath>
</defs>
</svg>
