<svg width="248" height="56" viewBox="0 0 248 56" fill="none" xmlns="http://www.w3.org/2000/svg">
<g clip-path="url(#clip0)">
<path d="M34.9418 43.6864C34.5739 45.8035 33.7453 47.8139 32.5147 49.5755C31.1294 51.5258 29.2762 53.0968 27.1253 54.144C24.1564 55.5183 20.8993 56.1551 17.6314 56C15.4184 56.005 13.217 55.6802 11.0998 55.0363C9.04881 54.4514 7.13274 53.4691 5.46057 52.1453C3.78218 50.7546 2.42973 49.0123 1.49881 47.0414C0.440469 44.6753 -0.0718681 42.1015 -0.000237377 39.5105L-0.000237377 34.8706H10.7072V37.2619C10.702 38.4591 10.8095 39.6541 11.0284 40.8311C11.1745 41.8214 11.5271 42.7699 12.0635 43.615C12.5741 44.4086 13.2892 45.0497 14.1336 45.471C15.1971 45.9532 16.3571 46.1852 17.5243 46.1491C18.767 46.2098 20.0022 45.9257 21.0935 45.3282C21.9031 44.8054 22.547 44.0625 22.9494 43.1867C23.3132 42.2749 23.5301 41.3112 23.5919 40.3314C23.6435 39.3446 23.6435 38.3558 23.5919 37.369V1.28487L35.4415 1.28487V37.9401C35.4209 39.8654 35.2539 41.7864 34.9418 43.6864Z" fill="white"/>
<path d="M72.4893 1.28496L92.4766 54.8222H80.2701L76.2369 42.8299H56.214L52.0024 54.7509H40.1885L60.4256 1.21358L72.4893 1.28496ZM73.1675 34.1212L66.4218 14.4551H66.2433L59.2834 34.1212H73.1675Z" fill="white"/>
<path d="M125.991 1.28495C128.209 1.25875 130.411 1.64608 132.487 2.42708C134.328 3.15616 136.003 4.24864 137.412 5.63932C138.787 6.95814 139.869 8.55108 140.589 10.3149C141.313 12.1309 141.677 14.0705 141.66 16.0255C141.733 18.8794 141.043 21.7011 139.661 24.1989C138.189 26.6505 135.902 28.5074 133.201 29.4456C134.506 29.8121 135.721 30.4439 136.77 31.3015C137.714 32.1289 138.5 33.1205 139.09 34.2282C139.685 35.3511 140.118 36.5528 140.375 37.7974C140.652 39.128 140.843 40.4752 140.946 41.8305C140.946 42.6871 140.946 43.6865 140.946 44.8286C140.946 45.9707 140.946 47.1486 141.231 48.3978C141.344 49.5398 141.534 50.6727 141.802 51.7885C142.044 52.7744 142.467 53.7066 143.052 54.5367H131.273C130.577 52.5851 130.18 50.5395 130.096 48.4691C130.096 46.1135 129.703 43.8649 129.417 41.7234C129.274 39.5179 128.451 37.4109 127.062 35.6916C126.179 34.9598 125.16 34.4097 124.063 34.0728C122.967 33.7359 121.815 33.6189 120.673 33.7285H108.895V54.6438H97.1523V1.28495H125.991ZM121.779 25.4838C123.962 25.6421 126.129 25.0085 127.883 23.6992C128.606 22.9169 129.157 21.992 129.501 20.9839C129.845 19.9758 129.975 18.9069 129.881 17.8458C129.981 16.8114 129.854 15.7677 129.509 14.7875C129.164 13.8073 128.609 12.9143 127.883 12.1709C126.124 10.8742 123.958 10.2535 121.779 10.422H108.895V25.4838H121.779Z" fill="white"/>
<path d="M185.596 15.5615C184.882 14.4378 183.99 13.4373 182.955 12.5991C181.892 11.728 180.684 11.0513 179.386 10.6004C178.056 10.1298 176.656 9.88841 175.246 9.88659C172.904 9.82847 170.586 10.356 168.5 11.4213C166.747 12.4324 165.265 13.8529 164.181 15.5615C162.937 17.3364 162.019 19.3184 161.469 21.415C160.924 23.6594 160.637 25.9584 160.612 28.2677C160.618 30.4681 160.882 32.6602 161.397 34.7993C161.972 36.8665 162.915 38.8131 164.181 40.5456C165.328 42.2562 166.87 43.6643 168.678 44.6501C170.764 45.7155 173.083 46.243 175.424 46.1849C176.959 46.2497 178.489 45.9836 179.912 45.4047C181.334 44.8258 182.616 43.9477 183.669 42.8299C185.741 40.3859 186.989 37.3511 187.238 34.1568H198.624C198.385 37.3024 197.6 40.3824 196.304 43.2582C195.126 45.8624 193.439 48.2045 191.342 50.1466C189.28 52.0638 186.852 53.5448 184.204 54.501C181.293 55.5265 178.225 56.0339 175.139 56C171.342 56.0592 167.574 55.33 164.074 53.8585C160.92 52.5193 158.094 50.5098 155.794 47.9694C153.556 45.4224 151.835 42.4646 150.726 39.2607C149.501 35.7637 148.897 32.0797 148.941 28.3748C148.895 24.5882 149.498 20.8217 150.726 17.239C151.852 13.9451 153.61 10.9022 155.901 8.28048C158.185 5.66946 161.011 3.58687 164.181 2.17723C170.35 -0.381658 177.22 -0.697392 183.597 1.28494C186.171 2.03949 188.588 3.24824 190.736 4.85409C192.832 6.50361 194.579 8.5541 195.875 10.886C197.283 13.4312 198.157 16.2365 198.445 19.1307H187.024C186.798 17.8555 186.312 16.6405 185.596 15.5615Z" fill="white"/>
<path d="M246.807 1.28487V11.1714H218.575V22.6284H244.487V31.7654H218.575V44.8999H247.414V54.7865H206.797V1.28487L246.807 1.28487Z" fill="white"/>
</g>
<defs>
<clipPath id="clip0">
<rect width="247.414" height="56" fill="white"/>
</clipPath>
</defs>
</svg>
