<svg width="669" height="615" viewBox="0 0 669 615" fill="none" xmlns="http://www.w3.org/2000/svg">
<path d="M513.068 502.267C505.02 498.241 497.978 494.214 492.948 489.182C487.918 484.149 482.888 479.116 479.87 475.09C476.852 470.057 474.84 467.038 473.834 465.025C467.798 452.946 462.768 441.874 458.744 431.809C453.714 421.743 449.69 409.664 444.659 395.573C433.593 366.383 422.527 336.187 410.455 305.99C399.389 275.794 387.317 244.591 375.244 212.381C367.196 191.244 359.148 170.106 351.1 147.962C347.076 136.89 343.052 125.818 339.028 114.746C339.028 113.74 338.022 111.727 338.022 110.72C324.944 75.491 310.859 38.2488 296.775 0H290.739C288.727 3.01964 285.709 8.05237 282.691 13.0851C278.667 18.1178 274.643 23.1506 269.613 29.1899C263.577 34.2226 257.541 40.2619 251.505 45.2946C244.462 50.3273 237.42 55.3601 228.366 58.3797L235.408 73.4779C224.342 99.6481 212.27 127.831 199.192 158.028C186.114 188.224 174.041 218.421 160.963 248.617C147.885 278.813 135.813 306.997 122.735 335.18C110.662 364.37 99.5963 389.534 90.5422 411.678C79.476 435.835 70.4219 453.953 63.3798 466.031C55.3316 478.11 50.3016 486.162 47.2835 489.182C46.2775 491.195 41.2474 494.214 32.1933 499.247C23.1392 504.28 13.079 507.3 1.00684 509.313V517.365H150.903V510.319C144.867 509.313 138.831 508.306 131.789 507.3C124.747 506.293 118.711 504.28 112.674 501.26C106.638 499.247 101.608 495.221 98.5903 491.195C94.5662 487.169 92.5542 482.136 92.5542 476.097C92.5542 466.031 97.5843 447.913 107.644 422.75C114.687 406.645 120.723 390.54 127.765 373.429C129.777 368.396 131.789 363.363 133.801 358.331C141.849 338.2 159.957 325.115 180.077 323.101C182.09 323.101 184.102 323.101 187.12 323.101H336.01C343.052 341.219 350.094 359.337 356.13 375.442C362.166 391.547 367.196 407.651 372.226 421.743C377.256 435.835 380.275 446.907 383.293 456.972C385.305 467.038 387.317 473.077 387.317 478.11C387.317 485.156 385.305 490.188 380.275 494.214C375.244 498.241 370.214 502.267 365.184 504.28C359.148 506.293 353.112 508.306 348.082 509.313C343.052 510.319 339.028 510.319 338.022 510.319V517.365H543.249V509.313C530.171 508.306 521.117 506.293 513.068 502.267ZM286.715 308.003H152.915C163.981 279.82 175.047 254.656 184.102 230.499C194.162 207.349 202.21 185.205 210.258 167.087C218.306 147.962 225.348 132.864 230.378 118.773C235.408 105.687 239.432 95.6219 242.45 89.5826C246.475 99.6481 252.511 112.733 258.547 129.845C261.565 137.897 264.583 146.956 268.607 155.008C271.625 164.067 275.649 173.126 279.673 183.191C284.703 195.27 289.733 208.355 294.763 220.434C297.781 228.486 300.799 235.532 303.817 243.584C306.835 251.637 309.853 259.689 312.871 268.748C320.92 287.872 306.835 308.003 286.715 308.003Z" fill="black"/>
<path d="M658.939 445.9C654.915 466.031 646.867 486.162 634.795 504.28C622.722 522.398 609.644 540.516 592.542 554.607C575.44 568.699 557.332 580.778 535.199 589.836C514.073 598.895 490.935 602.922 466.79 602.922C435.604 602.922 407.435 596.882 382.285 583.797C357.135 570.712 335.002 553.601 317.9 531.457C299.792 509.313 286.713 484.149 276.653 453.953C266.593 424.763 262.569 392.553 262.569 358.331C262.569 345.246 263.575 333.167 264.581 320.082H185.106C183.094 320.082 181.082 320.082 178.064 320.082C178.064 322.095 178.064 323.102 177.058 325.115C176.052 336.187 175.046 345.246 175.046 354.305C175.046 392.553 181.082 426.776 195.166 458.985C208.244 491.195 227.359 518.372 251.503 540.516C276.653 563.666 305.828 580.778 341.038 592.856C376.249 604.935 415.483 611.98 459.748 611.98C485.904 611.98 509.043 609.967 529.163 604.935C549.283 600.908 566.386 594.869 580.47 589.836C594.554 583.797 605.62 578.764 612.662 573.732C619.704 568.699 624.735 566.686 625.741 566.686C627.753 566.686 632.783 569.706 638.819 576.751C644.855 582.791 650.891 590.843 656.927 598.895H664.975L666.987 443.887H658.939V445.9ZM660.951 109.714C657.933 113.74 654.915 117.766 651.897 121.792C648.879 125.818 644.855 129.845 641.837 131.858C638.819 134.877 635.801 137.897 633.789 139.91C630.771 141.923 629.765 142.93 628.759 142.93C627.753 142.93 623.729 139.91 615.68 134.877C607.632 129.845 597.572 123.805 583.488 117.766C569.404 111.727 551.295 105.688 531.175 100.655C510.049 95.6221 484.898 92.6024 456.73 92.6024C425.544 92.6024 397.375 95.6221 373.231 102.668C361.159 105.688 350.092 109.714 339.026 113.74C343.05 124.812 347.074 135.884 351.098 146.956C360.153 139.91 369.207 132.864 379.267 126.825C404.417 112.733 433.592 104.681 465.784 104.681C488.922 104.681 511.055 108.707 532.181 117.766C553.307 125.818 571.416 137.897 588.518 151.989C605.62 166.08 619.704 184.198 631.777 203.323C643.849 223.453 652.903 244.591 658.939 266.735L666.987 265.728V109.714H660.951Z" fill="black"/>
</svg>
