<svg width="65" height="60" viewBox="0 0 65 60" fill="none" xmlns="http://www.w3.org/2000/svg">
<path d="M45.51 11.4809C47.7202 11.4809 49.9304 11.8802 51.9397 12.6789C53.949 13.4775 55.7573 14.5757 57.3648 15.9734C58.9722 17.371 60.3787 18.9684 61.5842 20.8652C62.7898 22.7621 63.5935 24.7587 64.1963 26.9551L65 26.8552V11.7804H64.1963C63.8949 12.1797 63.5935 12.579 63.2921 12.9784C62.9907 13.3777 62.6893 13.6772 62.3879 13.9767C62.0865 14.2762 61.7852 14.4759 61.5842 14.6755C61.3833 14.8752 61.1824 14.975 61.0819 14.975C60.9814 14.975 60.5796 14.7754 59.8763 14.2762C59.1731 13.777 58.068 13.2779 56.762 12.6789C55.4559 12.0799 53.7481 11.5807 51.6383 11.0815C49.6291 10.5824 47.2179 10.3827 44.5054 10.3827C41.4915 10.3827 38.779 10.6822 36.4683 11.2812C35.6646 11.4809 34.8609 11.7804 34.0572 11.98C33.9567 11.7804 33.8563 11.5807 33.8563 11.381C33.8563 11.2812 33.7558 11.0815 33.6553 10.9817C32.3493 7.48752 30.9428 3.79368 29.5363 0H28.9335C28.7326 0.299501 28.4312 0.798669 28.1298 1.29784C27.8284 1.79701 27.3261 2.29617 26.8238 2.89517C26.3215 3.49418 25.7187 3.99334 25.1159 4.49251C24.4127 4.99168 23.7094 5.49085 22.8053 5.79035L23.5085 7.28785C22.4034 9.88353 21.1978 12.6789 19.8918 15.6739C18.5858 18.6689 17.3802 21.6639 16.0742 24.6589C14.7682 27.6539 13.5626 30.4493 12.2566 33.2446C10.9505 36.0399 9.9459 38.6356 9.04173 40.832C7.93663 43.228 7.03246 45.025 6.32921 46.223C5.5255 47.421 5.02318 48.2196 4.72179 48.5191C4.62133 48.7188 4.11901 49.0183 3.21484 49.5175C2.31066 50.0166 1.30603 50.3161 0.100464 50.5158V51.3145H15.0695V50.6156C14.4668 50.5158 13.864 50.416 13.1607 50.3161C12.4575 50.2163 11.8547 50.0166 11.2519 49.7171C10.6491 49.5175 10.1468 49.1181 9.84544 48.7188C9.44358 48.3195 9.24266 47.8203 9.24266 47.2213C9.24266 46.223 9.74498 44.426 10.7496 41.9301C11.3524 40.3328 12.0556 38.7354 12.7589 37.0383C12.9598 36.5391 13.1607 36.0399 13.3617 35.5408C14.1654 33.6439 15.8733 32.2463 17.983 32.0466C17.983 32.2463 17.983 32.3461 17.8825 32.4459C17.7821 33.4443 17.6816 34.4426 17.6816 35.2413C17.6816 38.8353 18.2844 42.2296 19.5904 45.2246C20.8964 48.2196 22.7048 50.9151 25.0155 53.0117C27.4266 55.208 30.2396 56.9052 33.6553 58.1032C37.0711 59.3012 40.8887 59.9002 45.0077 59.9002C47.5193 59.9002 49.7295 59.7005 51.7388 59.2013C53.6476 58.802 55.3555 58.3028 56.6615 57.7038C58.068 57.1048 59.0726 56.6057 59.7759 56.1065C60.4791 55.6073 60.881 55.4077 60.9814 55.4077C61.1824 55.4077 61.5842 55.7072 62.187 56.3062C62.7898 56.9052 63.2921 57.604 63.8949 58.4027H64.6986L64.8995 43.5275H64.0958C63.694 45.4243 62.8903 47.3211 61.7852 49.1181C60.6801 50.9151 59.2736 52.5125 57.7666 53.9102C56.1592 55.3078 54.3508 56.406 52.2411 57.3045C50.2318 58.1032 48.0216 58.6023 45.6105 58.6023C42.5966 58.6023 39.8841 58.0033 37.4729 56.8053C35.0618 55.6073 32.9521 53.9102 31.2442 51.8136C29.5363 49.7171 28.2303 47.2213 27.2257 44.426C26.3215 41.6306 25.8192 38.5358 25.8192 35.3411C25.8192 34.1431 25.9196 32.9451 26.0201 31.7471H33.2535C33.9567 33.5441 34.5595 35.3411 35.2627 36.9384C35.8655 38.6356 36.3678 40.1331 36.8702 41.5308C37.3725 42.9285 37.6739 44.0266 37.9753 45.025C38.1762 45.9235 38.3771 46.6223 38.3771 47.1215C38.3771 47.7205 38.1762 48.3195 37.6739 48.7188C37.1716 49.1181 36.6692 49.5175 36.1669 49.7171C35.5641 49.9168 34.9614 50.1165 34.459 50.2163C33.9567 50.3161 33.5549 50.3161 33.4544 50.3161V51.015H53.949V50.2163C52.8439 50.2163 51.9397 49.9168 51.136 49.6173C50.3323 49.218 49.6291 48.8186 49.1267 48.3195C48.6244 47.8203 48.1221 47.3211 47.8207 46.9218C47.5193 46.4226 47.3184 46.1231 47.2179 45.9235C46.6151 44.7255 46.1128 43.6273 45.711 42.629C45.3091 41.6306 44.8068 40.4326 44.3045 39.0349C43.1994 36.1398 42.0943 33.1448 40.8887 30.1498C39.7836 27.1547 38.578 24.0599 37.3725 20.8652C36.5688 18.8686 35.8655 16.772 35.0618 14.6755C35.6646 14.1764 36.3678 13.777 37.0711 13.3777C39.5827 12.1797 42.3957 11.4809 45.51 11.4809ZM28.6321 30.5491H15.2705C16.3756 27.7537 17.4807 25.2579 18.3848 22.8619C19.3895 20.5657 20.1932 18.3694 20.9969 16.5724C21.8006 14.6755 22.5039 13.0782 23.0062 11.7804C23.5085 10.4825 23.9104 9.48419 24.2117 8.88519C24.6136 9.88353 25.1159 11.1814 25.8192 12.8785C26.1206 13.6772 26.5224 14.5757 26.8238 15.3744C27.2257 16.2729 27.527 17.1714 27.9289 18.1697C28.4312 19.3677 28.9335 20.6656 29.4359 21.8636C29.7372 22.6622 30.0386 23.3611 30.34 24.1597C30.6414 24.9584 30.9428 25.7571 31.2442 26.6556C32.0479 28.5524 30.6414 30.5491 28.6321 30.5491Z" fill="white"/>
</svg>
