<svg width="237" height="99" viewBox="0 0 237 99" fill="none" xmlns="http://www.w3.org/2000/svg">
<path d="M87.84 79.84C88.12 79.8533 88.4867 79.8667 88.94 79.88C89.3933 79.8933 89.84 79.9 90.28 79.9C90.9067 79.9 91.5067 79.8933 92.08 79.88C92.6533 79.8667 93.06 79.86 93.3 79.86C94.9133 79.86 96.12 80.2267 96.92 80.96C97.72 81.6933 98.12 82.64 98.12 83.8C98.12 84.28 98.04 84.7867 97.88 85.32C97.72 85.84 97.44 86.3267 97.04 86.78C96.6533 87.22 96.12 87.58 95.44 87.86C94.76 88.14 93.9 88.28 92.86 88.28H90.94V87.88H92.66C93.6067 87.88 94.3267 87.7 94.82 87.34C95.3267 86.98 95.6667 86.5067 95.84 85.92C96.0267 85.3333 96.12 84.7 96.12 84.02C96.12 82.7533 95.8667 81.8067 95.36 81.18C94.8667 80.5533 94.0133 80.24 92.8 80.24C92.1867 80.24 91.7867 80.3533 91.6 80.58C91.4133 80.8067 91.32 81.2667 91.32 81.96V91.88C91.32 92.36 91.3667 92.72 91.46 92.96C91.5667 93.2 91.7667 93.36 92.06 93.44C92.3533 93.52 92.78 93.5733 93.34 93.6V94C92.9933 93.9733 92.5533 93.96 92.02 93.96C91.4867 93.9467 90.9467 93.94 90.4 93.94C89.88 93.94 89.3933 93.9467 88.94 93.96C88.4867 93.96 88.12 93.9733 87.84 94V93.6C88.2933 93.5733 88.6333 93.52 88.86 93.44C89.1 93.36 89.26 93.2 89.34 92.96C89.42 92.72 89.46 92.36 89.46 91.88V81.96C89.46 81.4667 89.42 81.1067 89.34 80.88C89.26 80.64 89.1 80.48 88.86 80.4C88.6333 80.3067 88.2933 80.2533 87.84 80.24V79.84ZM104.339 79.74L109.219 92.32C109.419 92.8267 109.646 93.1667 109.899 93.34C110.152 93.5 110.386 93.5867 110.599 93.6V94C110.332 93.9733 110.006 93.96 109.619 93.96C109.232 93.9467 108.846 93.94 108.459 93.94C107.939 93.94 107.452 93.9467 106.999 93.96C106.546 93.96 106.179 93.9733 105.899 94V93.6C106.579 93.5733 107.012 93.46 107.199 93.26C107.386 93.0467 107.346 92.6 107.079 91.92L103.359 81.98L103.679 81.72L100.199 90.76C99.9189 91.48 99.7856 92.0467 99.7989 92.46C99.8122 92.86 99.9656 93.1467 100.259 93.32C100.552 93.4933 100.979 93.5867 101.539 93.6V94C101.166 93.9733 100.772 93.96 100.359 93.96C99.9589 93.9467 99.5856 93.94 99.2389 93.94C98.9056 93.94 98.6189 93.9467 98.3789 93.96C98.1522 93.96 97.9389 93.9733 97.7389 94V93.6C98.0056 93.5333 98.2789 93.38 98.5589 93.14C98.8389 92.8867 99.0922 92.46 99.3189 91.86L104.019 79.74C104.072 79.74 104.126 79.74 104.179 79.74C104.232 79.74 104.286 79.74 104.339 79.74ZM106.779 88.24V88.64H100.819L101.019 88.24H106.779ZM110.926 79.84C111.206 79.8533 111.573 79.8667 112.026 79.88C112.479 79.8933 112.926 79.9 113.366 79.9C113.993 79.9 114.593 79.8933 115.166 79.88C115.739 79.8667 116.146 79.86 116.386 79.86C117.999 79.86 119.206 80.1933 120.006 80.86C120.806 81.5267 121.206 82.3533 121.206 83.34C121.206 83.74 121.126 84.1667 120.966 84.62C120.806 85.0733 120.526 85.5 120.126 85.9C119.739 86.3 119.206 86.6333 118.526 86.9C117.846 87.1533 116.986 87.28 115.946 87.28H114.026V86.88H115.746C116.693 86.88 117.413 86.7333 117.906 86.44C118.413 86.1333 118.753 85.7333 118.926 85.24C119.113 84.7333 119.206 84.1733 119.206 83.56C119.206 82.5067 118.953 81.6933 118.446 81.12C117.953 80.5333 117.099 80.24 115.886 80.24C115.273 80.24 114.873 80.3533 114.686 80.58C114.499 80.8067 114.406 81.2667 114.406 81.96V91.88C114.406 92.36 114.446 92.72 114.526 92.96C114.606 93.2 114.759 93.36 114.986 93.44C115.226 93.52 115.573 93.5733 116.026 93.6V94C115.719 93.9733 115.333 93.96 114.866 93.96C114.413 93.9467 113.953 93.94 113.486 93.94C112.966 93.94 112.479 93.9467 112.026 93.96C111.573 93.96 111.206 93.9733 110.926 94V93.6C111.379 93.5733 111.719 93.52 111.946 93.44C112.186 93.36 112.346 93.2 112.426 92.96C112.506 92.72 112.546 92.36 112.546 91.88V81.96C112.546 81.4667 112.506 81.1067 112.426 80.88C112.346 80.64 112.186 80.48 111.946 80.4C111.719 80.3067 111.379 80.2533 110.926 80.24V79.84ZM114.106 86.94C114.826 86.9667 115.393 87 115.806 87.04C116.219 87.0667 116.553 87.0933 116.806 87.12C117.073 87.1467 117.326 87.18 117.566 87.22C118.459 87.3667 119.099 87.64 119.486 88.04C119.886 88.4267 120.179 89.0333 120.366 89.86L120.866 91.9C120.999 92.4867 121.133 92.9133 121.266 93.18C121.413 93.4333 121.633 93.5533 121.926 93.54C122.153 93.5267 122.339 93.4533 122.486 93.32C122.646 93.1867 122.813 93.0067 122.986 92.78L123.286 93C123.006 93.4133 122.713 93.7333 122.406 93.96C122.113 94.1733 121.693 94.28 121.146 94.28C120.653 94.28 120.219 94.1333 119.846 93.84C119.473 93.5467 119.193 92.9733 119.006 92.12L118.566 90.12C118.446 89.5467 118.306 89.0533 118.146 88.64C117.999 88.2133 117.786 87.88 117.506 87.64C117.239 87.4 116.839 87.28 116.306 87.28H114.146L114.106 86.94ZM128.995 79.84V80.24C128.541 80.2533 128.195 80.3067 127.955 80.4C127.728 80.48 127.575 80.64 127.495 80.88C127.415 81.1067 127.375 81.4667 127.375 81.96V91.88C127.375 92.36 127.415 92.72 127.495 92.96C127.575 93.2 127.728 93.36 127.955 93.44C128.195 93.52 128.541 93.5733 128.995 93.6V94C128.688 93.9733 128.301 93.96 127.835 93.96C127.381 93.9467 126.921 93.94 126.455 93.94C125.935 93.94 125.448 93.9467 124.995 93.96C124.541 93.96 124.175 93.9733 123.895 94V93.6C124.348 93.5733 124.688 93.52 124.915 93.44C125.155 93.36 125.315 93.2 125.395 92.96C125.475 92.72 125.515 92.36 125.515 91.88V81.96C125.515 81.4667 125.475 81.1067 125.395 80.88C125.315 80.64 125.155 80.48 124.915 80.4C124.688 80.3067 124.348 80.2533 123.895 80.24V79.84C124.175 79.8533 124.541 79.8667 124.995 79.88C125.448 79.8933 125.935 79.9 126.455 79.9C126.921 79.9 127.381 79.8933 127.835 79.88C128.301 79.8667 128.688 79.8533 128.995 79.84ZM134.952 79.62C135.619 79.62 136.125 79.7 136.472 79.86C136.819 80.0067 137.125 80.1733 137.392 80.36C137.552 80.4533 137.679 80.5267 137.772 80.58C137.879 80.62 137.979 80.64 138.072 80.64C138.285 80.64 138.432 80.3467 138.512 79.76H138.972C138.959 79.9867 138.939 80.26 138.912 80.58C138.899 80.8867 138.885 81.3 138.872 81.82C138.872 82.3267 138.872 83 138.872 83.84H138.412C138.372 83.2 138.232 82.5867 137.992 82C137.752 81.4133 137.399 80.9333 136.932 80.56C136.479 80.1867 135.879 80 135.132 80C134.425 80 133.839 80.2133 133.372 80.64C132.919 81.0667 132.692 81.6267 132.692 82.32C132.692 82.92 132.845 83.4267 133.152 83.84C133.459 84.24 133.865 84.6067 134.372 84.94C134.892 85.26 135.452 85.6067 136.052 85.98C136.745 86.4067 137.359 86.8333 137.892 87.26C138.439 87.6733 138.865 88.1333 139.172 88.64C139.492 89.1467 139.652 89.76 139.652 90.48C139.652 91.3333 139.459 92.04 139.072 92.6C138.685 93.16 138.172 93.58 137.532 93.86C136.892 94.14 136.185 94.28 135.412 94.28C134.705 94.28 134.145 94.2 133.732 94.04C133.319 93.88 132.965 93.7133 132.672 93.54C132.379 93.3533 132.152 93.26 131.992 93.26C131.779 93.26 131.632 93.5533 131.552 94.14H131.092C131.119 93.86 131.132 93.5333 131.132 93.16C131.145 92.7733 131.152 92.2733 131.152 91.66C131.165 91.0467 131.172 90.2733 131.172 89.34H131.632C131.685 90.14 131.832 90.8867 132.072 91.58C132.325 92.2733 132.705 92.8333 133.212 93.26C133.732 93.6733 134.419 93.88 135.272 93.88C135.925 93.88 136.519 93.6733 137.052 93.26C137.599 92.8333 137.872 92.1533 137.872 91.22C137.872 90.4067 137.585 89.7333 137.012 89.2C136.439 88.6667 135.685 88.12 134.752 87.56C134.125 87.1733 133.539 86.78 132.992 86.38C132.445 85.98 132.005 85.52 131.672 85C131.352 84.4667 131.192 83.8267 131.192 83.08C131.192 82.2933 131.365 81.6467 131.712 81.14C132.072 80.62 132.539 80.24 133.112 80C133.685 79.7467 134.299 79.62 134.952 79.62Z" fill="white"/>
<g clip-path="url(#clip0)">
<path d="M65.679 1.08716V2.71823C64.037 2.71823 62.9424 2.71823 61.8477 3.26192C61.3004 3.80561 60.7531 4.34929 60.2058 4.89298C59.6584 5.43667 60.2058 7.06774 60.2058 9.2425V46.7571C60.2058 48.3881 60.2058 50.0192 60.7531 51.1066C61.3004 52.194 61.8477 52.7376 62.3951 52.7376C62.9424 53.2813 64.5844 53.2813 66.2263 53.2813V54.9124C64.5844 54.9124 62.9424 54.9124 60.7531 54.9124C58.5638 54.9124 56.3745 54.9124 54.1852 54.9124C51.9959 54.9124 49.2593 54.9124 47.07 54.9124C44.8807 54.9124 43.2387 54.9124 41.5967 54.9124V53.2813C43.2387 53.2813 44.8807 52.7376 45.428 52.7376C46.5226 52.194 47.07 51.6503 47.07 51.1066C47.6173 50.0192 48.1646 48.9318 48.1646 46.7571V5.98036H48.7119L29.5556 55.4561H28.4609L7.66255 6.52405V42.9512C7.66255 45.6697 7.66255 47.8444 8.20988 49.4755C8.7572 51.1066 9.30453 52.194 10.3992 52.7376C11.4938 53.2813 13.1358 53.825 15.3251 53.825V55.4561C14.2305 55.4561 13.1358 55.4561 11.4938 55.4561C9.85185 55.4561 8.20988 55.4561 7.11523 55.4561C6.02058 55.4561 4.92593 55.4561 3.28395 55.4561C2.1893 55.4561 1.09465 55.4561 0 55.4561V53.2813C1.64198 53.2813 2.73663 52.7376 3.83128 52.194C4.3786 51.6503 4.92593 50.5629 5.47325 48.9318C6.02058 47.3008 5.47325 45.6697 5.47325 43.4949V9.2425C5.47325 7.06774 5.47325 5.98036 5.47325 4.89298C5.47325 3.8056 4.3786 3.26192 3.83128 3.26192C2.73663 2.71823 1.64198 2.71823 0 2.71823V1.08716C0.547325 1.08716 1.64198 1.08716 3.28395 1.08716C4.3786 1.08716 5.47325 1.08716 7.11523 1.08716C9.30453 1.08716 11.4938 1.08716 13.6831 1.08716C15.8724 1.08716 17.5144 1.08716 19.1564 1.08716L35.0288 39.6891L32.8395 41.3202L48.1646 1.08716C49.2593 1.08716 49.8066 1.08716 50.9012 1.08716C51.9959 1.08716 52.5432 1.08716 53.6379 1.08716C55.8272 1.08716 58.0165 1.08716 60.2058 1.08716C62.3951 1.08716 64.5844 1.08716 65.679 1.08716Z" fill="white"/>
<path d="M136.283 12.5049C134.093 8.15534 130.809 5.43689 126.978 3.26214C123.147 1.08738 118.221 0 112.748 0C108.916 0 105.085 0.543689 101.801 2.17476C98.5171 0.543689 94.6858 0 90.8545 0C85.3813 0 81.0027 1.08738 76.6241 3.80582C72.2455 6.52427 69.5089 9.24272 66.7722 13.5922C64.5829 17.9417 63.4883 22.835 63.4883 28.8155C63.4883 34.7961 64.5829 39.6893 66.7722 43.4951C68.9615 47.8447 72.2455 50.5631 76.0768 52.7379C79.908 54.9126 84.834 56 90.3072 56C94.1385 56 97.9698 55.4563 101.254 53.8252C104.538 54.9126 108.369 56 112.2 56C117.673 56 122.052 54.9126 126.431 52.7379C130.809 50.5631 133.546 47.301 136.283 42.9515C138.472 38.6019 139.566 33.7087 139.566 28.2718C140.114 21.7476 139.019 16.8544 136.283 12.5049ZM89.2126 43.4951C91.4019 47.301 94.1385 50.0194 97.4224 52.1942C95.7805 53.8252 93.0438 54.9126 90.8545 54.9126C88.1179 54.9126 85.9286 53.8252 83.192 51.6505C81.0027 49.4757 79.3607 46.2136 77.7187 42.4078C76.6241 38.6019 75.5294 33.7087 75.5294 28.2718C75.5294 22.8349 76.0768 18.4854 77.1714 14.1359C78.2661 10.3301 79.908 7.06796 82.0973 4.8932C84.2866 2.71845 86.4759 1.63107 89.7599 1.63107C92.4965 1.63107 94.6858 2.71845 96.8751 4.8932C93.5912 7.06796 90.8545 10.3301 88.6652 14.1359C86.4759 18.4854 85.3813 23.3786 85.3813 29.3592C85.9286 34.2524 87.0233 39.1456 89.2126 43.4951ZM103.443 41.8641C102.896 43.4951 102.348 44.5825 101.801 45.6699C101.254 44.5825 100.706 43.4951 100.159 41.8641C99.0644 38.0583 98.5171 33.7087 98.5171 28.2718C98.5171 22.8349 99.0644 18.4854 100.159 14.1359C100.706 12.5049 101.254 11.4175 101.801 10.3301C102.348 11.4175 102.896 12.5049 103.443 13.5922C104.538 17.3981 105.632 22.2913 105.632 27.7282C105.085 33.165 104.538 37.5146 103.443 41.8641ZM125.336 41.8641C124.241 45.6699 122.599 48.932 120.41 51.1068C118.221 53.2815 115.484 54.3689 112.748 54.3689C110.011 54.3689 107.822 53.2816 105.632 51.6505C108.916 49.4757 111.653 46.2136 113.842 42.4078C116.031 38.0583 117.126 33.165 117.126 27.7282C117.126 21.7476 116.031 16.8544 113.842 13.0485C111.653 9.24272 108.916 6.52427 105.632 4.34951C107.274 2.71845 109.464 1.63107 112.2 1.63107C114.937 1.63107 117.673 2.71845 119.863 4.8932C122.052 7.06796 123.694 10.3301 125.336 14.1359C126.431 17.9417 127.525 22.8349 127.525 28.2718C126.978 33.165 126.431 37.5146 125.336 41.8641Z" fill="white"/>
<path d="M163.651 1.08716C173.502 1.08716 181.165 3.26192 186.091 8.15512C191.017 12.5046 193.206 19.0289 193.206 27.7279C193.206 33.1648 192.112 38.058 189.375 42.4076C187.186 46.7571 183.354 50.0192 178.976 52.194C174.597 54.3687 169.124 55.4561 162.556 55.4561C161.461 55.4561 159.819 55.4561 157.083 55.4561C154.893 55.4561 152.704 55.4561 151.062 55.4561C148.873 55.4561 146.684 55.4561 144.494 55.4561C142.305 55.4561 140.663 55.4561 139.568 55.4561V53.2813C141.21 53.2813 142.305 52.7376 143.4 52.7376C144.494 52.7376 144.494 51.6503 145.042 51.1066C145.589 50.0192 145.589 48.9318 145.589 46.7571V9.2425C145.589 7.61143 145.589 5.98036 145.042 4.89298C144.494 3.8056 143.947 3.26192 143.4 3.26192C142.305 2.71823 141.21 2.71823 139.568 2.71823V1.08716C140.663 1.08716 142.305 1.08716 144.494 1.08716C146.684 1.08716 148.873 1.08716 151.062 1.08716C152.704 1.08716 154.893 1.08716 157.083 1.08716C160.367 1.08716 162.009 1.08716 163.651 1.08716ZM163.651 2.17454C161.461 2.17454 159.819 2.71823 159.272 3.26192C158.725 4.34929 158.177 5.98036 158.177 8.69881V46.7571C158.177 49.4755 158.725 51.1066 159.272 52.194C159.819 53.2813 161.461 53.2813 163.651 53.2813C168.029 53.2813 171.313 52.194 174.05 50.0192C176.786 47.8444 178.428 45.126 179.523 41.3202C180.07 38.058 180.618 33.1648 180.618 27.7279C180.618 19.0289 179.523 13.0483 176.786 8.69881C174.05 4.34929 169.671 2.17454 163.651 2.17454Z" fill="white"/>
<path d="M236.445 54.9124C233.708 54.9124 230.972 54.9124 227.688 54.9124H203.058C199.774 54.9124 197.037 54.9124 194.301 54.9124V53.2813C195.943 53.2813 197.037 52.7376 198.132 52.7376C198.679 52.194 199.227 51.6503 199.774 51.1066C200.321 50.5629 200.321 48.9318 200.321 46.7571V9.2425C200.321 7.61143 200.321 5.98036 199.774 4.89298C199.774 3.8056 198.679 3.26192 198.132 3.26192C197.585 3.26192 195.943 2.71823 194.301 2.71823V1.08716C197.037 1.08716 199.774 1.08716 203.058 1.08716C206.342 1.08716 209.079 1.08716 212.363 1.08716H218.93C221.12 1.08716 223.856 1.08716 227.14 1.08716C229.877 1.08716 232.614 1.08716 235.35 1.08716C235.35 3.26192 234.803 5.43667 234.803 7.61143C234.803 9.78619 234.803 11.4173 234.803 12.5046C234.803 13.592 234.803 14.6794 234.803 15.2231C234.803 16.3105 234.803 16.8541 234.803 17.3978H233.161C232.614 13.592 232.066 10.8736 230.972 8.69881C229.877 6.52405 228.235 4.89298 226.593 4.34929C224.951 3.26192 222.762 3.26192 220.572 3.26192H217.288C215.646 3.26192 214.552 3.26192 214.004 3.8056C213.457 3.8056 212.91 4.34929 212.363 5.43667C212.363 5.98036 211.815 7.61143 211.815 9.2425V27.1842H214.552C216.741 27.1842 218.383 26.6406 219.478 25.5532C220.572 24.4658 221.667 22.8347 222.214 21.7474C222.762 20.1163 223.309 19.0289 223.856 17.3978H225.498C225.498 20.1163 224.951 22.291 225.498 23.9221C225.498 25.5532 225.498 26.6406 225.498 28.2716C225.498 29.359 225.498 30.9901 225.498 32.6211C225.498 34.2522 225.498 36.427 226.046 39.1454H224.404C224.404 37.5143 223.856 35.8833 222.762 34.2522C222.214 32.6211 221.12 31.5338 220.025 30.4464C218.93 29.359 217.288 28.8153 215.099 28.8153H212.363V47.8444C212.363 49.4755 212.363 50.5629 212.91 51.1066C212.91 51.6503 213.457 52.194 214.552 52.7376C215.099 52.7376 216.194 53.2813 217.836 53.2813H221.667C223.856 53.2813 226.046 52.7376 227.688 51.6503C229.33 50.5629 230.972 48.9318 232.066 46.7571C233.161 44.5823 234.256 41.3202 234.803 36.9707H236.445C236.445 38.6017 236.445 40.7765 236.445 43.4949C236.445 44.5823 236.445 46.2134 236.445 48.3881C236.445 50.5629 235.897 52.7376 236.445 54.9124Z" fill="white"/>
</g>
<defs>
<clipPath id="clip0">
<rect width="236.444" height="56" fill="white"/>
</clipPath>
</defs>
</svg>
