<svg width="98" height="40" viewBox="0 0 98 40" fill="none" xmlns="http://www.w3.org/2000/svg">
<g clip-path="url(#clip0)">
<path d="M0 39.4074L13.9259 0L25.6296 0L27.2593 39.2593H17.7778L18.0741 32.8889H10.963L10.3704 39.2593L0 39.4074Z" fill="white"/>
<path d="M13.1855 24.1481L18.2226 9.33331V24.1481H13.1855Z" fill="#13131E"/>
<path d="M34.3702 0L28.8887 38.6667H38.5183L40.5924 25.7778L44.1479 38.6667H54.222L47.8516 18.8148L58.9627 0L48.5924 0L42.5183 12.7407L42.8146 0L34.3702 0Z" fill="white"/>
<path d="M74.2215 0L69.6289 38.3704H77.0363L79.8511 16.2963L82.2215 38.3704H91.703L97.777 0L89.4808 0L85.4808 21.7778L86.0733 0L74.2215 0Z" fill="white"/>
<path d="M61.1858 0L56.2969 38.6667H65.0376L70.2228 0L61.1858 0Z" fill="white"/>
</g>
<defs>
<clipPath id="clip0">
<rect width="97.7778" height="40" fill="white"/>
</clipPath>
</defs>
</svg>
