<svg width="313" height="128" viewBox="0 0 313 128" fill="none" xmlns="http://www.w3.org/2000/svg">
<g clip-path="url(#clip0)">
<path d="M0 126.104L44.563 0L82.0148 0L87.2296 125.63H56.8889L57.837 105.244H35.0815L33.1852 125.63L0 126.104Z" fill="white"/>
<path d="M42.1929 77.2741L58.3114 29.8667V77.2741H42.1929Z" fill="#13131E"/>
<path d="M109.985 0L92.4443 123.733H123.259L129.896 82.4889L141.274 123.733H173.511L153.126 60.2074L188.681 0L155.496 0L136.059 40.7704L137.007 0L109.985 0Z" fill="white"/>
<path d="M237.511 0L222.815 122.785H246.519L255.526 52.1482L263.111 122.785H293.452L312.889 0L286.341 0L273.541 69.6889L275.437 0L237.511 0Z" fill="white"/>
<path d="M195.792 0L180.147 123.733H208.118L224.71 0L195.792 0Z" fill="white"/>
</g>
<defs>
<clipPath id="clip0">
<rect width="312.889" height="128" fill="white"/>
</clipPath>
</defs>
</svg>
