<svg width="352" height="142" viewBox="0 0 352 142" fill="none" xmlns="http://www.w3.org/2000/svg">
<path d="M0 141.867L50.1333 0L92.2666 0L98.1333 141.333H64L65.0667 118.4H39.4667L37.3333 141.333L0 141.867Z" fill="white"/>
<path d="M47.4668 86.9334L65.6001 33.6V86.9334H47.4668Z" fill="#13131E"/>
<path d="M123.733 0L104 139.2H138.667L146.133 92.8L158.933 139.2H195.2L172.267 67.7333L212.267 0L174.933 0L153.067 45.8667L154.133 0L123.733 0Z" fill="white"/>
<path d="M267.2 0L250.667 138.133H277.334L287.467 58.6667L296 138.133H330.134L352 0L322.134 0L307.734 78.4L309.867 0L267.2 0Z" fill="white"/>
<path d="M220.266 0L202.666 139.2H234.133L252.799 0L220.266 0Z" fill="white"/>
</svg>
