<svg width="201" height="56" viewBox="0 0 201 56" fill="none" xmlns="http://www.w3.org/2000/svg">
<path d="M0 28C0 43.4032 0.0380953 56 0.0888889 56C0.165079 56 10.5143 54.0825 11.7841 53.8286L12.4445 53.7016V43.4159V33.1429H16.381H20.3175V31.2635C20.3175 30.2349 20.3556 27.5556 20.4064 25.2952L20.4826 21.2063H16.4699H12.4445V16.6984V12.1905H17.0794C19.6318 12.1905 21.7143 12.1651 21.7143 12.127C21.7143 11.9873 22.7302 1.14285 22.7937 0.596819L22.8699 -6.93798e-06H11.4286H0V28Z" fill="white"/>
<path d="M189.944 1.63814L179.811 2.47623V27.7715V53.0667L180.23 53.1302C180.598 53.1937 200.217 54.6159 200.611 54.6032C200.725 54.6032 200.763 53.2572 200.763 48.3175V42.0318H196.445H192.128V37.4604V32.8889H195.811H199.493V27.4286V21.9683H195.684H191.874V18.3493V14.7302L192.166 14.6794C192.318 14.6413 193.614 14.5905 195.049 14.5397C196.484 14.5016 198.35 14.4381 199.214 14.3874L200.763 14.3112V7.54291V0.761951L200.42 0.774647C200.217 0.787348 195.506 1.1683 189.944 1.63814Z" fill="white"/>
<path d="M124.89 3.39046C125.017 4.6603 126.464 23.7968 126.439 23.8222C126.426 23.8476 124.56 19.2635 122.287 13.6381C120.026 8.01268 118.122 3.35237 118.071 3.26348C117.995 3.1238 114.49 3.77142 108.737 4.99046L108.191 5.10475V26.9333V48.7619H113.842H119.493L119.43 47.8476C119.303 46.146 118.833 32.0762 118.883 31.5174C118.922 31.0222 119.303 31.8857 122.909 40.5968C125.093 45.8921 126.947 50.273 126.998 50.3492C127.074 50.4254 128.839 50.3111 131.836 50.0571C134.439 49.8286 136.572 49.6254 136.572 49.6127C136.585 49.6 136.522 40.4444 136.433 29.2698C136.344 18.0952 136.268 7.54284 136.268 5.80316L136.255 2.66665H130.541H124.814L124.89 3.39046Z" fill="white"/>
<path d="M35.4924 3.44131C27.8987 3.94925 23.7209 9.1429 22.4003 19.6826C22.1336 21.8667 22.0193 29.2826 22.2098 31.8731C22.8447 40.2794 25.1178 45.7397 29.1559 48.5207C31.3273 50.0064 34.5908 50.8064 37.8162 50.6159C41.486 50.4127 43.9876 49.3715 46.2352 47.1238C48.0765 45.2826 49.0797 43.5556 50.0447 40.6096C51.3908 36.4953 52.0003 30.3492 51.6955 23.9492C51.3527 16.7873 50.2733 12.3302 48.0511 8.91433C45.9305 5.66353 42.5781 3.72067 38.667 3.47941C38.0447 3.44131 37.3844 3.40322 37.2066 3.37782C37.0289 3.36512 36.267 3.39052 35.4924 3.44131ZM37.2828 13.4223C38.2098 14.4254 38.6035 18.4254 38.6035 26.9842C38.6035 37.5238 37.9432 41.9048 36.4955 40.9651C35.8733 40.5461 35.4035 38.5016 35.1749 35.1112C35.0098 32.635 35.0098 21.2953 35.1749 18.9207C35.4162 15.5683 35.8479 13.7143 36.4955 13.2699C36.8511 13.0159 36.9146 13.0286 37.2828 13.4223Z" fill="white"/>
<path d="M53.334 26.527V49.6508H59.1626H64.9784L65.0546 48.0381C65.1054 47.1365 65.207 44.2159 65.2832 41.5238C65.3594 38.8317 65.461 36.4698 65.5118 36.2794C65.5753 36.0127 66.1213 37.727 67.7975 43.5175C69.0165 47.6952 70.0451 51.1619 70.0959 51.2127C70.1975 51.327 82.1086 50.3873 82.2356 50.2603C82.2737 50.2095 80.953 46.0571 79.3022 41.0032L76.3054 31.8349L76.9403 31.2762C79.0483 29.4349 80.788 25.8794 81.2832 22.3619C81.4991 20.8254 81.3594 17.0159 81.0292 15.6063C79.7594 10.0825 76.3943 5.79046 72.1022 4.19046C70.2356 3.50475 70.388 3.51745 61.5626 3.46665L53.334 3.41586V26.527ZM66.426 14.3619C67.3276 14.8063 68.0641 15.9492 68.4578 17.5238C68.7245 18.5778 68.6864 21.9174 68.3943 22.9841C67.8483 24.9905 66.8832 26.1587 65.4356 26.6032L65.1435 26.6794V20.3301V13.9682L65.5626 14.0571C65.7784 14.0952 66.1721 14.2349 66.426 14.3619Z" fill="white"/>
<path d="M81.6504 9.46031V15.3651H84.8885H88.1266V32.3809V49.3968H94.2219H100.317V33.3968V17.3968H103.619H106.92V11.4921V5.5873L106.641 5.5365C106.374 5.47301 82.1583 3.54286 81.8155 3.55555C81.6885 3.55555 81.6504 4.82539 81.6504 9.46031Z" fill="white"/>
<path d="M138.92 27.873V50.9206H145.206H151.491V27.873V4.8254H145.206H138.92V27.873Z" fill="white"/>
<path d="M165.841 6.42539C158.959 6.79365 153.232 7.09841 153.117 7.09841C152.901 7.1111 152.889 7.47936 152.889 13.0794V19.0476H156.127H159.365V35.746V52.4444H165.524H171.682V35.0476V17.6508H175.111H178.539V11.6825C178.539 8.39365 178.501 5.72698 178.451 5.72698C178.387 5.73968 172.724 6.04444 165.841 6.42539Z" fill="white"/>
</svg>
