<svg width="144" height="40" viewBox="0 0 144 40" fill="none" xmlns="http://www.w3.org/2000/svg">
<path d="M0 20C0 31.0023 0.0273245 40 0.0637571 40C0.118406 40 7.54156 38.6304 8.45237 38.449L8.926 38.3583V31.0113V23.6735H11.7495H14.5731V22.3311C14.5731 21.5964 14.6004 19.6825 14.6368 18.068L14.6915 15.1474H11.8133H8.926V11.9274V8.70748H12.2505C14.0812 8.70748 15.575 8.68934 15.575 8.66213C15.575 8.56236 16.3036 0.816323 16.3491 0.426303L16.4038 -5.96046e-07H8.19734H0L0 20Z" fill="#13131E"/>
<path d="M136.239 1.17012L128.971 1.76876V19.8368V37.9048L129.271 37.9502C129.535 37.9955 143.608 39.0114 143.89 39.0023C143.972 39.0023 143.999 38.0409 143.999 34.5125V30.0227H140.902H137.806V26.7574V23.4921H140.447H143.088V19.5919V15.6917H140.356H137.623V13.1066V10.5216L137.833 10.4853C137.942 10.4581 138.871 10.4218 139.901 10.3855C140.93 10.3583 142.269 10.313 142.888 10.2767L143.999 10.2223V5.38781V0.544265L143.753 0.553338C143.608 0.562408 140.228 0.834515 136.239 1.17012Z" fill="#13131E"/>
<path d="M89.5788 2.42177C89.6699 3.32881 90.7082 16.9977 90.69 17.0159C90.6809 17.034 89.342 13.7596 87.7116 9.7415C86.0904 5.72336 84.7241 2.39456 84.6877 2.33107C84.6331 2.2313 82.1192 2.69388 77.9932 3.56463L77.6016 3.64626V19.2381V34.8299H81.6547H85.7078L85.6623 34.1769C85.5712 32.9615 85.2342 22.9116 85.2706 22.5125C85.2979 22.1587 85.5712 22.7755 88.1579 28.9977C89.7245 32.78 91.0543 35.9093 91.0907 35.9637C91.1454 36.0181 92.4114 35.9365 94.5609 35.7551C96.4281 35.5918 97.9583 35.4467 97.9583 35.4376C97.9674 35.4286 97.9218 28.8889 97.8581 20.907C97.7943 12.9252 97.7397 5.38776 97.7397 4.14513L97.7306 1.90477H93.6319H89.5241L89.5788 2.42177Z" fill="#13131E"/>
<path d="M25.4583 2.45811C20.0116 2.82092 17.015 6.53067 16.0677 14.059C15.8765 15.6191 15.7945 20.9162 15.9311 22.7665C16.3865 28.771 18.0169 32.6713 20.9133 34.6577C22.4708 35.7189 24.8116 36.2903 27.125 36.1543C29.7573 36.0091 31.5516 35.2654 33.1638 33.6599C34.4844 32.3447 35.204 31.1112 35.8962 29.0069C36.8617 26.0681 37.2989 21.6781 37.0803 17.1066C36.8343 11.991 36.0601 8.80731 34.4662 6.3674C32.9452 4.04541 30.5406 2.65765 27.7353 2.48532C27.289 2.45811 26.8154 2.4309 26.6879 2.41276C26.5603 2.40369 26.0139 2.42183 25.4583 2.45811ZM26.7425 9.58736C27.4074 10.3039 27.6898 13.1611 27.6898 19.2744C27.6898 26.8028 27.2161 29.932 26.1778 29.2608C25.7315 28.9615 25.3945 27.5012 25.2306 25.0794C25.1121 23.3107 25.1121 15.2109 25.2306 13.5148C25.4036 11.1202 25.7133 9.79597 26.1778 9.47852C26.4328 9.29711 26.4784 9.30618 26.7425 9.58736Z" fill="#13131E"/>
<path d="M38.2539 18.9478V35.4648H42.4345H46.6061L46.6607 34.3129C46.6972 33.6689 46.77 31.5827 46.8247 29.6598C46.8793 27.7369 46.9522 26.0499 46.9886 25.9138C47.0342 25.7233 47.4258 26.9478 48.6281 31.0839C49.5025 34.068 50.2402 36.5442 50.2767 36.5805C50.3495 36.6621 58.893 35.9909 58.9841 35.9002C59.0114 35.8639 58.0641 32.8979 56.8801 29.288L54.7306 22.7392L55.186 22.3401C56.6979 21.0249 57.9457 18.4852 58.301 15.9728C58.4558 14.8753 58.3556 12.1542 58.1188 11.1474C57.208 7.20178 54.7943 4.13602 51.7158 2.99317C50.3769 2.50337 50.4862 2.51244 44.156 2.47616L38.2539 2.43988V18.9478ZM47.6444 10.2585C48.2911 10.5759 48.8194 11.3923 49.1017 12.517C49.293 13.2698 49.2657 15.6553 49.0562 16.4172C48.6645 17.8503 47.9723 18.6848 46.934 19.0022L46.7245 19.0567V14.5215V9.97729L47.0251 10.0408C47.1799 10.068 47.4623 10.1678 47.6444 10.2585Z" fill="#13131E"/>
<path d="M58.5664 6.75737V10.9751H60.889H63.2116V23.1293V35.2834H67.5835H71.9554V23.8549V12.4263H74.3235H76.6917V8.20861V3.99093L76.4913 3.95464C76.3 3.90929 58.9307 2.53061 58.6848 2.53968C58.5937 2.53968 58.5664 3.44671 58.5664 6.75737Z" fill="#13131E"/>
<path d="M99.6426 19.9093V36.3719H104.151H108.66V19.9093V3.44672H104.151H99.6426V19.9093Z" fill="#13131E"/>
<path d="M118.952 4.58964C114.016 4.85268 109.908 5.07037 109.826 5.07037C109.671 5.07944 109.662 5.34247 109.662 9.34247V13.6055H111.985H114.307V25.533V37.4604H118.725H123.142V25.0341V12.6078H125.601H128.061V8.34474C128.061 5.99554 128.033 4.09077 127.997 4.09077C127.951 4.09984 123.889 4.31753 118.952 4.58964Z" fill="#13131E"/>
</svg>
