<svg width="177" height="40" viewBox="0 0 177 40" fill="none" xmlns="http://www.w3.org/2000/svg">
<path d="M24.6476 31.2105C24.3881 32.7189 23.8038 34.1513 22.9359 35.4064C21.9589 36.796 20.6519 37.9152 19.135 38.6614C17.0412 39.6406 14.7441 40.0942 12.4394 39.9837C10.8787 39.9873 9.32618 39.7559 7.833 39.2971C6.38652 38.8804 5.0352 38.1806 3.8559 37.2373C2.67221 36.2465 1.71839 35.0051 1.06186 33.6009C0.315463 31.9151 -0.0458641 30.0812 0.00465365 28.2352L0.00465365 24.9293H7.55612V26.6331C7.55241 27.4861 7.62826 28.3375 7.78266 29.1761C7.88563 29.8817 8.13434 30.5575 8.51264 31.1596C8.87273 31.725 9.37708 32.1818 9.97259 32.482C10.7226 32.8256 11.5407 32.9909 12.3639 32.9651C13.2403 33.0084 14.1114 32.806 14.881 32.3802C15.4521 32.0077 15.9061 31.4785 16.19 30.8545C16.4466 30.2048 16.5995 29.5182 16.643 28.8201C16.6795 28.117 16.6795 27.4125 16.643 26.7094V1H25V27.1163C24.9855 28.4881 24.8677 29.8568 24.6476 31.2105V31.2105Z" fill="white"/>
<path d="M51.8567 1.0506L66 39H57.3625L54.5085 30.4993H40.3399L37.3597 38.9494H29L43.3201 1L51.8567 1.0506ZM52.3365 24.3262L47.5631 10.3862H47.4369L42.5119 24.3262H52.3365Z" fill="white"/>
<path d="M90.7341 1.00089C92.3283 0.982229 93.9121 1.25806 95.4043 1.81425C96.7279 2.33345 97.9322 3.11146 98.9456 4.10182C99.9339 5.04101 100.712 6.17541 101.229 7.43151C101.75 8.72477 102.012 10.1061 101.999 11.4983C102.052 13.5306 101.556 15.5401 100.562 17.3189C99.5037 19.0648 97.8599 20.3872 95.9176 21.0553V21.0553C96.8556 21.3163 97.7292 21.7663 98.4837 22.377C99.1622 22.9662 99.7274 23.6723 100.152 24.4612C100.58 25.2609 100.891 26.1167 101.075 27.003C101.275 27.9505 101.412 28.9099 101.486 29.8751C101.486 30.4851 101.486 31.1968 101.486 32.0102C101.486 32.8236 101.486 33.6623 101.691 34.5519C101.772 35.3652 101.909 36.172 102.102 36.9666C102.275 37.6688 102.58 38.3326 103 38.9237H94.5319C94.0314 37.5339 93.7459 36.0771 93.6851 34.6028C93.6851 32.9252 93.4028 31.3239 93.1975 29.7989C93.0941 28.2282 92.5025 26.7277 91.5039 25.5033C90.8689 24.9822 90.1363 24.5904 89.348 24.3505C88.5598 24.1106 87.7314 24.0273 86.9106 24.1054H78.4425V39H70V1.00089H90.7341ZM87.7061 18.2339C89.2754 18.3467 90.8333 17.8955 92.0941 16.9631C92.6138 16.4059 93.0102 15.7472 93.2576 15.0294C93.5051 14.3115 93.5983 13.5502 93.5311 12.7946C93.603 12.058 93.5117 11.3147 93.2635 10.6166C93.0153 9.91857 92.6162 9.28263 92.0941 8.75321C90.8298 7.82982 89.2722 7.38775 87.7061 7.50776H78.4425V18.2339H87.7061Z" fill="white"/>
<path d="M133.561 11.1157C133.043 10.3131 132.397 9.59857 131.647 8.99995C130.877 8.37774 130.002 7.89448 129.061 7.57242C128.098 7.23628 127.083 7.06389 126.061 7.06259C124.365 7.02108 122.685 7.39786 121.173 8.15873C119.903 8.88083 118.83 9.89543 118.044 11.1157C117.143 12.3834 116.477 13.7989 116.079 15.2964C115.685 16.8994 115.476 18.5414 115.458 20.1907C115.463 21.7623 115.654 23.3279 116.027 24.8557C116.444 26.3321 117.127 27.7224 118.044 28.9598C118.875 30.1815 119.993 31.1872 121.303 31.8913C122.814 32.6522 124.494 33.029 126.19 32.9875C127.302 33.0337 128.411 32.8437 129.442 32.4302C130.473 32.0168 131.401 31.3896 132.164 30.5913C133.665 28.8457 134.57 26.6782 134.75 24.3968H143C142.827 26.6435 142.259 28.8432 141.319 30.8971C140.466 32.7571 139.244 34.4299 137.724 35.817C136.23 37.1863 134.471 38.2441 132.552 38.927C130.443 39.6594 128.22 40.0218 125.984 39.9976C123.233 40.0399 120.503 39.5191 117.967 38.4681C115.681 37.5116 113.634 36.0764 111.967 34.262C110.346 32.4429 109.098 30.3304 108.295 28.0421C107.408 25.5445 106.97 22.9133 107.002 20.2672C106.968 17.5627 107.406 14.8726 108.295 12.3138C109.111 9.96125 110.385 7.78799 112.045 5.91548C113.7 4.05064 115.747 2.56322 118.044 1.55643C122.514 -0.27117 127.492 -0.496672 132.113 0.919141C133.977 1.45806 135.729 2.32137 137.285 3.46829C138.804 4.64641 140.07 6.11091 141.009 7.77636C142.029 9.5942 142.662 11.5978 142.871 13.6649H134.595C134.432 12.7541 134.08 11.8864 133.561 11.1157V11.1157Z" fill="white"/>
<path d="M176.567 1V8.02201H156.409V16.1594H174.91V22.6491H156.409V31.978H177V39H148V1L176.567 1Z" fill="white"/>
</svg>
