<svg width="566" height="128" viewBox="0 0 566 128" fill="none" xmlns="http://www.w3.org/2000/svg">
<g clip-path="url(#clip0)">
<path d="M79.8674 99.8546C79.0265 104.694 77.1327 109.289 74.3199 113.315C71.1534 117.773 66.9175 121.364 62.0012 123.758C55.215 126.899 47.7704 128.354 40.3008 128C35.2426 128.011 30.2109 127.269 25.3715 125.797C20.6835 124.46 16.3039 122.215 12.4818 119.189C8.64547 116.011 5.55416 112.028 3.42633 107.523C1.00727 102.115 -0.163782 96.2319 -5.42933e-05 90.3097L-5.42933e-05 79.7042H24.4741V85.1701C24.4621 87.9065 24.7079 90.6379 25.2084 93.3281C25.5421 95.5917 26.3482 97.7597 27.5742 99.6914C28.7412 101.505 30.3759 102.971 32.3059 103.934C34.7368 105.036 37.3881 105.566 40.056 105.484C42.8964 105.622 45.7198 104.973 48.2141 103.607C50.0648 102.412 51.5364 100.714 52.4563 98.7125C53.2879 96.6283 53.7836 94.4255 53.9247 92.186C54.0428 89.9305 54.0428 87.6703 53.9247 85.4148V2.93682L81.0095 2.93682V86.7201C80.9627 91.1209 80.5808 95.5117 79.8674 99.8546Z" fill="white"/>
<path d="M165.69 2.93703L211.376 125.308H183.475L174.256 97.8969H128.49L118.863 125.145H91.8599L138.116 2.77387L165.69 2.93703ZM167.24 77.9912L151.822 33.0403H151.414L135.506 77.9912H167.24Z" fill="white"/>
<path d="M287.98 2.93705C293.048 2.87717 298.083 3.76248 302.827 5.54763C307.035 7.2141 310.864 9.71119 314.085 12.8899C317.228 15.9043 319.701 19.5454 321.346 23.5769C323.001 27.7278 323.833 32.1613 323.794 36.6298C323.962 43.1529 322.385 49.6026 319.225 55.3118C315.86 60.9156 310.634 65.1598 304.459 67.3042C307.441 68.142 310.218 69.5862 312.617 71.5464C314.774 73.4375 316.571 75.704 317.92 78.236C319.28 80.8025 320.269 83.5493 320.857 86.394C321.491 89.4353 321.927 92.5147 322.162 95.6126C322.162 97.5706 322.162 99.8548 322.162 102.465C322.162 105.076 322.162 107.768 322.815 110.623C323.071 113.234 323.507 115.823 324.12 118.374C324.672 120.627 325.64 122.758 326.975 124.655H300.054C298.462 120.195 297.555 115.519 297.361 110.787C297.361 105.402 296.464 100.263 295.811 95.3679C295.483 90.3266 293.602 85.5106 290.427 81.5808C288.408 79.9081 286.079 78.6507 283.573 77.8807C281.067 77.1107 278.434 76.8433 275.824 77.0938H248.903V124.9H222.062V2.93705L287.98 2.93705ZM278.353 58.2487C283.342 58.6105 288.295 57.1624 292.303 54.1697C293.956 52.3814 295.216 50.2673 296.003 47.9632C296.789 45.6591 297.085 43.2158 296.872 40.7905C297.101 38.4261 296.81 36.0404 296.021 33.8C295.232 31.5595 293.963 29.5184 292.303 27.8191C288.284 24.8554 283.332 23.4365 278.353 23.8217H248.903V58.2487H278.353Z" fill="white"/>
<path d="M424.22 35.5692C422.587 33.0006 420.548 30.7138 418.183 28.798C415.753 26.8068 412.992 25.2602 410.025 24.2295C406.985 23.1538 403.785 22.6021 400.561 22.5979C395.21 22.4651 389.91 23.6709 385.142 26.1059C381.136 28.4168 377.749 31.6639 375.271 35.5692C372.427 39.626 370.328 44.1563 369.071 48.9485C367.827 54.0786 367.17 59.3335 367.113 64.6119C367.127 69.6413 367.729 74.6519 368.908 79.5412C370.222 84.2663 372.378 88.7157 375.271 92.6757C377.892 96.5855 381.418 99.8042 385.55 102.057C390.318 104.492 395.618 105.698 400.969 105.565C404.477 105.714 407.975 105.105 411.226 103.782C414.478 102.459 417.407 100.452 419.814 97.8968C424.55 92.3106 427.404 85.374 427.972 78.0727H453.997C453.452 85.2627 451.658 92.3025 448.694 98.8758C446.002 104.828 442.147 110.182 437.354 114.621C432.641 119.003 427.091 122.388 421.038 124.574C414.384 126.918 407.371 128.077 400.316 128C391.639 128.135 383.027 126.469 375.026 123.105C367.816 120.044 361.358 115.451 356.1 109.644C350.985 103.823 347.05 97.062 344.515 89.7388C341.717 81.7457 340.336 73.325 340.436 64.8567C340.331 56.2015 341.711 47.5923 344.515 39.4035C347.091 31.8745 351.109 24.9194 356.345 18.9268C361.567 12.9588 368.025 8.19855 375.271 4.97651C389.371 -0.872366 405.074 -1.59404 419.651 2.93699C425.533 4.66169 431.058 7.42455 435.967 11.0951C440.759 14.8654 444.753 19.5522 447.715 24.8822C450.932 30.6998 452.931 37.1119 453.589 43.7273H427.483C426.967 40.8126 425.856 38.0355 424.22 35.5692Z" fill="white"/>
<path d="M564.13 2.93682V25.5347H499.599V51.722H558.827V72.6067H499.599V102.628H565.517V125.226H472.678V2.93682L564.13 2.93682Z" fill="white"/>
</g>
<defs>
<clipPath id="clip0">
<rect width="565.517" height="128" fill="white"/>
</clipPath>
</defs>
</svg>
