<svg width="608" height="275" viewBox="0 0 608 275" fill="none" xmlns="http://www.w3.org/2000/svg">
<path d="M231.352 221.352C232.136 221.389 233.163 221.427 234.432 221.464C235.701 221.501 236.952 221.52 238.184 221.52C239.939 221.52 241.619 221.501 243.224 221.464C244.829 221.427 245.968 221.408 246.64 221.408C251.157 221.408 254.536 222.435 256.776 224.488C259.016 226.541 260.136 229.192 260.136 232.44C260.136 233.784 259.912 235.203 259.464 236.696C259.016 238.152 258.232 239.515 257.112 240.784C256.029 242.016 254.536 243.024 252.632 243.808C250.728 244.592 248.32 244.984 245.408 244.984H240.032V243.864H244.848C247.499 243.864 249.515 243.36 250.896 242.352C252.315 241.344 253.267 240.019 253.752 238.376C254.275 236.733 254.536 234.96 254.536 233.056C254.536 229.509 253.827 226.859 252.408 225.104C251.027 223.349 248.637 222.472 245.24 222.472C243.523 222.472 242.403 222.789 241.88 223.424C241.357 224.059 241.096 225.347 241.096 227.288V255.064C241.096 256.408 241.227 257.416 241.488 258.088C241.787 258.76 242.347 259.208 243.168 259.432C243.989 259.656 245.184 259.805 246.752 259.88V261C245.781 260.925 244.549 260.888 243.056 260.888C241.563 260.851 240.051 260.832 238.52 260.832C237.064 260.832 235.701 260.851 234.432 260.888C233.163 260.888 232.136 260.925 231.352 261V259.88C232.621 259.805 233.573 259.656 234.208 259.432C234.88 259.208 235.328 258.76 235.552 258.088C235.776 257.416 235.888 256.408 235.888 255.064V227.288C235.888 225.907 235.776 224.899 235.552 224.264C235.328 223.592 234.88 223.144 234.208 222.92C233.573 222.659 232.621 222.509 231.352 222.472V221.352ZM277.549 221.072L291.213 256.296C291.773 257.715 292.408 258.667 293.117 259.152C293.826 259.6 294.48 259.843 295.077 259.88V261C294.33 260.925 293.416 260.888 292.333 260.888C291.25 260.851 290.168 260.832 289.085 260.832C287.629 260.832 286.266 260.851 284.997 260.888C283.728 260.888 282.701 260.925 281.917 261V259.88C283.821 259.805 285.034 259.488 285.557 258.928C286.08 258.331 285.968 257.08 285.221 255.176L274.805 227.344L275.701 226.616L265.957 251.928C265.173 253.944 264.8 255.531 264.837 256.688C264.874 257.808 265.304 258.611 266.125 259.096C266.946 259.581 268.141 259.843 269.709 259.88V261C268.664 260.925 267.562 260.888 266.405 260.888C265.285 260.851 264.24 260.832 263.269 260.832C262.336 260.832 261.533 260.851 260.861 260.888C260.226 260.888 259.629 260.925 259.069 261V259.88C259.816 259.693 260.581 259.264 261.365 258.592C262.149 257.883 262.858 256.688 263.493 255.008L276.653 221.072C276.802 221.072 276.952 221.072 277.101 221.072C277.25 221.072 277.4 221.072 277.549 221.072ZM284.381 244.872V245.992H267.693L268.253 244.872H284.381ZM295.993 221.352C296.777 221.389 297.803 221.427 299.073 221.464C300.342 221.501 301.593 221.52 302.825 221.52C304.579 221.52 306.259 221.501 307.865 221.464C309.47 221.427 310.609 221.408 311.281 221.408C315.798 221.408 319.177 222.341 321.417 224.208C323.657 226.075 324.777 228.389 324.777 231.152C324.777 232.272 324.553 233.467 324.105 234.736C323.657 236.005 322.873 237.2 321.753 238.32C320.67 239.44 319.177 240.373 317.273 241.12C315.369 241.829 312.961 242.184 310.049 242.184H304.673V241.064H309.489C312.139 241.064 314.155 240.653 315.537 239.832C316.955 238.973 317.907 237.853 318.393 236.472C318.915 235.053 319.177 233.485 319.177 231.768C319.177 228.819 318.467 226.541 317.049 224.936C315.667 223.293 313.278 222.472 309.881 222.472C308.163 222.472 307.043 222.789 306.521 223.424C305.998 224.059 305.737 225.347 305.737 227.288V255.064C305.737 256.408 305.849 257.416 306.073 258.088C306.297 258.76 306.726 259.208 307.361 259.432C308.033 259.656 309.003 259.805 310.273 259.88V261C309.414 260.925 308.331 260.888 307.025 260.888C305.755 260.851 304.467 260.832 303.161 260.832C301.705 260.832 300.342 260.851 299.073 260.888C297.803 260.888 296.777 260.925 295.993 261V259.88C297.262 259.805 298.214 259.656 298.849 259.432C299.521 259.208 299.969 258.76 300.193 258.088C300.417 257.416 300.529 256.408 300.529 255.064V227.288C300.529 225.907 300.417 224.899 300.193 224.264C299.969 223.592 299.521 223.144 298.849 222.92C298.214 222.659 297.262 222.509 295.993 222.472V221.352ZM304.897 241.232C306.913 241.307 308.499 241.4 309.657 241.512C310.814 241.587 311.747 241.661 312.457 241.736C313.203 241.811 313.913 241.904 314.585 242.016C317.086 242.427 318.878 243.192 319.961 244.312C321.081 245.395 321.902 247.093 322.425 249.408L323.825 255.12C324.198 256.763 324.571 257.957 324.945 258.704C325.355 259.413 325.971 259.749 326.793 259.712C327.427 259.675 327.95 259.469 328.361 259.096C328.809 258.723 329.275 258.219 329.761 257.584L330.601 258.2C329.817 259.357 328.995 260.253 328.137 260.888C327.315 261.485 326.139 261.784 324.609 261.784C323.227 261.784 322.014 261.373 320.969 260.552C319.923 259.731 319.139 258.125 318.617 255.736L317.385 250.136C317.049 248.531 316.657 247.149 316.209 245.992C315.798 244.797 315.201 243.864 314.417 243.192C313.67 242.52 312.55 242.184 311.057 242.184H305.009L304.897 241.232ZM346.585 221.352V222.472C345.316 222.509 344.345 222.659 343.673 222.92C343.038 223.144 342.609 223.592 342.385 224.264C342.161 224.899 342.049 225.907 342.049 227.288V255.064C342.049 256.408 342.161 257.416 342.385 258.088C342.609 258.76 343.038 259.208 343.673 259.432C344.345 259.656 345.316 259.805 346.585 259.88V261C345.726 260.925 344.644 260.888 343.337 260.888C342.068 260.851 340.78 260.832 339.473 260.832C338.017 260.832 336.654 260.851 335.385 260.888C334.116 260.888 333.089 260.925 332.305 261V259.88C333.574 259.805 334.526 259.656 335.161 259.432C335.833 259.208 336.281 258.76 336.505 258.088C336.729 257.416 336.841 256.408 336.841 255.064V227.288C336.841 225.907 336.729 224.899 336.505 224.264C336.281 223.592 335.833 223.144 335.161 222.92C334.526 222.659 333.574 222.509 332.305 222.472V221.352C333.089 221.389 334.116 221.427 335.385 221.464C336.654 221.501 338.017 221.52 339.473 221.52C340.78 221.52 342.068 221.501 343.337 221.464C344.644 221.427 345.726 221.389 346.585 221.352ZM363.266 220.736C365.132 220.736 366.551 220.96 367.522 221.408C368.492 221.819 369.351 222.285 370.098 222.808C370.546 223.069 370.9 223.275 371.162 223.424C371.46 223.536 371.74 223.592 372.002 223.592C372.599 223.592 373.01 222.771 373.234 221.128H374.522C374.484 221.763 374.428 222.528 374.354 223.424C374.316 224.283 374.279 225.44 374.242 226.896C374.242 228.315 374.242 230.2 374.242 232.552H372.954C372.842 230.76 372.45 229.043 371.778 227.4C371.106 225.757 370.116 224.413 368.81 223.368C367.54 222.323 365.86 221.8 363.77 221.8C361.791 221.8 360.148 222.397 358.842 223.592C357.572 224.787 356.938 226.355 356.938 228.296C356.938 229.976 357.367 231.395 358.226 232.552C359.084 233.672 360.223 234.699 361.642 235.632C363.098 236.528 364.666 237.499 366.346 238.544C368.287 239.739 370.004 240.933 371.498 242.128C373.028 243.285 374.223 244.573 375.082 245.992C375.978 247.411 376.426 249.128 376.426 251.144C376.426 253.533 375.884 255.512 374.802 257.08C373.719 258.648 372.282 259.824 370.49 260.608C368.698 261.392 366.719 261.784 364.554 261.784C362.575 261.784 361.007 261.56 359.85 261.112C358.692 260.664 357.703 260.197 356.882 259.712C356.06 259.189 355.426 258.928 354.978 258.928C354.38 258.928 353.97 259.749 353.746 261.392H352.458C352.532 260.608 352.57 259.693 352.57 258.648C352.607 257.565 352.626 256.165 352.626 254.448C352.663 252.731 352.682 250.565 352.682 247.952H353.97C354.119 250.192 354.53 252.283 355.202 254.224C355.911 256.165 356.975 257.733 358.394 258.928C359.85 260.085 361.772 260.664 364.162 260.664C365.991 260.664 367.652 260.085 369.146 258.928C370.676 257.733 371.442 255.829 371.442 253.216C371.442 250.939 370.639 249.053 369.034 247.56C367.428 246.067 365.319 244.536 362.706 242.968C360.951 241.885 359.308 240.784 357.778 239.664C356.247 238.544 355.015 237.256 354.082 235.8C353.186 234.307 352.738 232.515 352.738 230.424C352.738 228.221 353.223 226.411 354.194 224.992C355.202 223.536 356.508 222.472 358.114 221.8C359.719 221.091 361.436 220.736 363.266 220.736Z" fill="white"/>
<path d="M168.889 2.79559V6.98977C164.667 6.98977 161.852 6.98977 159.037 8.38783C157.63 9.78589 156.222 11.1839 154.815 12.582C153.407 13.9801 154.815 18.1742 154.815 23.7665V120.233C154.815 124.427 154.815 128.621 156.222 131.417C157.63 134.213 159.037 135.611 160.444 135.611C161.852 137.009 166.074 137.009 170.296 137.009V141.203C166.074 141.203 161.852 141.203 156.222 141.203C150.593 141.203 144.963 141.203 139.333 141.203C133.704 141.203 126.667 141.203 121.037 141.203C115.407 141.203 111.185 141.203 106.963 141.203V137.009C111.185 137.009 115.407 135.611 116.815 135.611C119.63 134.213 121.037 132.815 121.037 131.417C122.444 128.621 123.852 125.825 123.852 120.233V15.3781H125.259L76 142.601H73.1852L19.7037 16.7762V110.446C19.7037 117.436 19.7037 123.029 21.1111 127.223C22.5185 131.417 23.9259 134.213 26.7407 135.611C29.5556 137.009 33.7778 138.407 39.4074 138.407V142.601C36.5926 142.601 33.7778 142.601 29.5556 142.601C25.3333 142.601 21.1111 142.601 18.2963 142.601C15.4815 142.601 12.6667 142.601 8.44444 142.601C5.62963 142.601 2.81481 142.601 0 142.601V137.009C4.22222 137.009 7.03704 135.611 9.85185 134.213C11.2593 132.815 12.6667 130.019 14.0741 125.825C15.4815 121.631 14.0741 117.436 14.0741 111.844V23.7665C14.0741 18.1742 14.0741 15.3781 14.0741 12.582C14.0741 9.78588 11.2593 8.38783 9.85185 8.38783C7.03704 6.98977 4.22222 6.98977 0 6.98977V2.79559C1.40741 2.79559 4.22222 2.79559 8.44444 2.79559C11.2593 2.79559 14.0741 2.79559 18.2963 2.79559C23.9259 2.79559 29.5556 2.79559 35.1852 2.79559C40.8148 2.79559 45.037 2.79559 49.2593 2.79559L90.0741 102.058L84.4444 106.252L123.852 2.79559C126.667 2.79559 128.074 2.79559 130.889 2.79559C133.704 2.79559 135.111 2.79559 137.926 2.79559C143.556 2.79559 149.185 2.79559 154.815 2.79559C160.444 2.79559 166.074 2.79559 168.889 2.79559Z" fill="white"/>
<path d="M350.44 32.1553C344.81 20.9709 336.366 13.9806 326.514 8.38835C316.662 2.79612 303.996 0 289.922 0C280.07 0 270.218 1.39806 261.773 5.59223C253.329 1.39806 243.477 0 233.625 0C219.551 0 208.292 2.79612 197.033 9.78641C185.773 16.7767 178.736 23.767 171.699 34.9515C166.07 46.1359 163.255 58.7184 163.255 74.0971C163.255 89.4757 166.07 102.058 171.699 111.845C177.329 123.029 185.773 130.019 195.625 135.612C205.477 141.204 218.144 144 232.218 144C242.07 144 251.922 142.602 260.366 138.408C268.81 141.204 278.662 144 288.514 144C302.588 144 313.848 141.204 325.107 135.612C336.366 130.019 343.403 121.631 350.44 110.447C356.07 99.2621 358.885 86.6796 358.885 72.699C360.292 55.9223 357.477 43.3398 350.44 32.1553ZM229.403 111.845C235.033 121.631 242.07 128.621 250.514 134.214C246.292 138.408 239.255 141.204 233.625 141.204C226.588 141.204 220.959 138.408 213.922 132.816C208.292 127.223 204.07 118.835 199.847 109.049C197.033 99.2621 194.218 86.6796 194.218 72.699C194.218 58.7184 195.625 47.534 198.44 36.3495C201.255 26.5631 205.477 18.1748 211.107 12.5825C216.736 6.99029 222.366 4.19417 230.81 4.19417C237.847 4.19417 243.477 6.99029 249.107 12.5825C240.662 18.1748 233.625 26.5631 227.996 36.3495C222.366 47.534 219.551 60.1165 219.551 75.4951C220.959 88.0777 223.773 100.66 229.403 111.845ZM265.996 107.65C264.588 111.845 263.181 114.641 261.773 117.437C260.366 114.641 258.959 111.845 257.551 107.65C254.736 97.8641 253.329 86.6796 253.329 72.699C253.329 58.7184 254.736 47.534 257.551 36.3495C258.959 32.1553 260.366 29.3592 261.773 26.5631C263.181 29.3592 264.588 32.1553 265.996 34.9515C268.81 44.7379 271.625 57.3204 271.625 71.301C270.218 85.2816 268.81 96.466 265.996 107.65ZM322.292 107.65C319.477 117.437 315.255 125.825 309.625 131.417C303.996 137.01 296.959 139.806 289.922 139.806C282.885 139.806 277.255 137.01 271.625 132.816C280.07 127.223 287.107 118.835 292.736 109.049C298.366 97.8641 301.181 85.2816 301.181 71.301C301.181 55.9223 298.366 43.3398 292.736 33.5534C287.107 23.767 280.07 16.7767 271.625 11.1845C275.847 6.99029 281.477 4.19417 288.514 4.19417C295.551 4.19417 302.588 6.99029 308.218 12.5825C313.847 18.1748 318.07 26.5631 322.292 36.3495C325.107 46.1359 327.922 58.7184 327.922 72.699C326.514 85.2815 325.107 96.466 322.292 107.65Z" fill="white"/>
<path d="M420.815 2.79559C446.148 2.79559 465.852 8.38783 478.518 20.9704C491.185 32.1548 496.814 48.9315 496.814 71.3005C496.814 85.281 494 97.8636 486.963 109.048C481.333 120.232 471.481 128.621 460.222 134.213C448.963 139.805 434.889 142.601 418 142.601C415.185 142.601 410.963 142.601 403.926 142.601C398.296 142.601 392.666 142.601 388.444 142.601C382.815 142.601 377.185 142.601 371.555 142.601C365.926 142.601 361.703 142.601 358.889 142.601V137.009C363.111 137.009 365.926 135.611 368.741 135.611C371.555 135.611 371.555 132.815 372.963 131.417C374.37 128.621 374.37 125.825 374.37 120.233V23.7665C374.37 19.5723 374.37 15.3781 372.963 12.582C371.555 9.78588 370.148 8.38783 368.741 8.38783C365.926 6.98977 363.111 6.98977 358.889 6.98977V2.79559C361.703 2.79559 365.926 2.79559 371.555 2.79559C377.185 2.79559 382.815 2.79559 388.444 2.79559C392.666 2.79559 398.296 2.79559 403.926 2.79559C412.37 2.79559 416.592 2.79559 420.815 2.79559ZM420.815 5.59171C415.185 5.59171 410.963 6.98977 409.555 8.38783C408.148 11.1839 406.74 15.3781 406.74 22.3684V120.233C406.74 127.223 408.148 131.417 409.555 134.213C410.963 137.009 415.185 137.009 420.815 137.009C432.074 137.009 440.518 134.213 447.555 128.621C454.592 123.029 458.815 116.038 461.629 106.252C463.037 97.8636 464.444 85.281 464.444 71.3005C464.444 48.9315 461.629 33.5529 454.592 22.3684C447.555 11.1839 436.296 5.59171 420.815 5.59171Z" fill="white"/>
<path d="M608 141.203C600.963 141.203 593.926 141.203 585.482 141.203H522.148C513.704 141.203 506.667 141.203 499.63 141.203V137.009C503.852 137.009 506.667 135.611 509.482 135.611C510.889 134.213 512.297 132.815 513.704 131.417C515.111 130.019 515.111 125.825 515.111 120.232V23.7665C515.111 19.5723 515.111 15.3781 513.704 12.582C513.704 9.78588 510.889 8.38783 509.482 8.38783C508.074 8.38783 503.852 6.98977 499.63 6.98977V2.79559C506.667 2.79559 513.704 2.79559 522.148 2.79559C530.593 2.79559 537.63 2.79559 546.074 2.79559H562.963C568.593 2.79559 575.63 2.79559 584.074 2.79559C591.111 2.79559 598.148 2.79559 605.185 2.79559C605.185 8.38783 603.778 13.9801 603.778 19.5723C603.778 25.1645 603.778 29.3587 603.778 32.1548C603.778 34.9509 603.778 37.747 603.778 39.1451C603.778 41.9412 603.778 43.3393 603.778 44.7373H599.556C598.148 34.9509 596.741 27.9606 593.926 22.3684C591.111 16.7762 586.889 12.582 582.667 11.1839C578.445 8.38783 572.815 8.38783 567.185 8.38783H558.741C554.519 8.38783 551.704 8.38783 550.297 9.78588C548.889 9.78588 547.482 11.1839 546.074 13.9801C546.074 15.3781 544.667 19.5723 544.667 23.7665V69.9024H551.704C557.334 69.9024 561.556 68.5043 564.371 65.7082C567.185 62.9121 570 58.7179 571.408 55.9218C572.815 51.7276 574.222 48.9315 575.63 44.7373H579.852C579.852 51.7276 578.445 57.3199 579.852 61.514C579.852 65.7082 579.852 68.5043 579.852 72.6985C579.852 75.4946 579.852 79.6888 579.852 83.883C579.852 88.0771 579.852 93.6694 581.259 100.66H577.037C577.037 96.4655 575.63 92.2713 572.815 88.0772C571.408 83.883 568.593 81.0869 565.778 78.2907C562.963 75.4946 558.741 74.0966 553.111 74.0966H546.074V123.029C546.074 127.223 546.074 130.019 547.482 131.417C547.482 132.815 548.889 134.213 551.704 135.611C553.111 135.611 555.926 137.009 560.148 137.009H570C575.63 137.009 581.259 135.611 585.482 132.815C589.704 130.019 593.926 125.825 596.741 120.232C599.556 114.64 602.371 106.252 603.778 95.0674H608C608 99.2616 608 104.854 608 111.844C608 114.64 608 118.834 608 124.427C608 130.019 606.593 135.611 608 141.203Z" fill="white"/>
</svg>
