<svg width="168" height="40" viewBox="0 0 168 40" fill="none" xmlns="http://www.w3.org/2000/svg">
<path d="M46.6019 0.776733V1.94178C45.4369 1.94178 44.6602 1.94178 43.8835 2.33013C43.4951 2.71848 43.1068 3.10683 42.7184 3.49518C42.3301 3.88353 42.7184 5.04858 42.7184 6.60198V33.3981C42.7184 34.5631 42.7184 35.7282 43.1068 36.5049C43.4951 37.2816 43.8835 37.6699 44.2718 37.6699C44.6602 38.0583 45.8252 38.0583 46.9903 38.0583V39.2233C45.8252 39.2233 44.6602 39.2233 43.1068 39.2233C41.5534 39.2233 40 39.2233 38.4466 39.2233C36.8932 39.2233 34.9515 39.2233 33.3981 39.2233C31.8447 39.2233 30.6796 39.2233 29.5146 39.2233V38.0583C30.6796 38.0583 31.8447 37.6699 32.233 37.6699C33.0097 37.2816 33.3981 36.8932 33.3981 36.5049C33.7864 35.7282 34.1748 34.9515 34.1748 33.3981V4.27188H34.5631L20.9709 39.6117H20.1942L5.43689 4.66023V30.6796C5.43689 32.6214 5.43689 34.1748 5.82524 35.3398C6.21359 36.5049 6.60194 37.2816 7.37864 37.6699C8.15534 38.0583 9.32039 38.4466 10.8738 38.4466V39.6117C10.0971 39.6117 9.32039 39.6117 8.15534 39.6117C6.99029 39.6117 5.82524 39.6117 5.04854 39.6117C4.27184 39.6117 3.49515 39.6117 2.3301 39.6117C1.5534 39.6117 0.776699 39.6117 0 39.6117L0 38.0583C1.16505 38.0583 1.94175 37.6699 2.71845 37.2816C3.1068 36.8932 3.49515 36.1165 3.8835 34.9515C4.27184 33.7864 3.8835 32.6214 3.8835 31.068V6.60198C3.8835 5.04858 3.8835 4.27188 3.8835 3.49518C3.8835 2.71848 3.1068 2.33013 2.71845 2.33013C1.94175 1.94178 1.16505 1.94178 0 1.94178L0 0.776733C0.38835 0.776733 1.16505 0.776733 2.3301 0.776733C3.1068 0.776733 3.8835 0.776733 5.04854 0.776733C6.60194 0.776733 8.15534 0.776733 9.70874 0.776733C11.2621 0.776733 12.4272 0.776733 13.5922 0.776733L24.8544 28.3496L23.301 29.5146L34.1748 0.776733C34.9515 0.776733 35.3398 0.776733 36.1165 0.776733C36.8932 0.776733 37.2816 0.776733 38.0583 0.776733C39.6117 0.776733 41.1651 0.776733 42.7184 0.776733C44.2718 0.776733 45.8252 0.776733 46.6019 0.776733Z" fill="#13131E"/>
<path d="M96.6993 8.93204C95.1459 5.82524 92.8158 3.8835 90.0974 2.3301C87.3789 0.776699 83.8838 0 80.0003 0C77.2818 0 74.5634 0.388349 72.2333 1.5534C69.9032 0.388349 67.1847 0 64.4663 0C60.5828 0 57.476 0.776699 54.3692 2.71845C51.2624 4.66019 49.3207 6.60194 47.3789 9.70874C45.8255 12.8155 45.0488 16.3107 45.0488 20.5825C45.0488 24.8544 45.8255 28.3495 47.3789 31.068C48.9323 34.1748 51.2624 36.1165 53.9809 37.6699C56.6993 39.2233 60.1945 40 64.078 40C66.7964 40 69.5148 39.6116 71.8449 38.4466C74.175 39.2233 76.8935 40 79.6119 40C83.4954 40 86.6022 39.2233 89.709 37.6699C92.8158 36.1165 94.7576 33.7864 96.6993 30.6796C98.2527 27.5728 99.0294 24.0777 99.0294 20.1942C99.4178 15.534 98.6411 12.0388 96.6993 8.93204ZM63.3013 31.068C64.8546 33.7864 66.7964 35.7282 69.1265 37.2816C67.9614 38.4466 66.0197 39.2233 64.4663 39.2233C62.5246 39.2233 60.9712 38.4466 59.0294 36.8932C57.476 35.3398 56.311 33.0097 55.1459 30.2913C54.3692 27.5728 53.5925 24.0777 53.5925 20.1942C53.5925 16.3107 53.9809 13.2039 54.7576 10.0971C55.5343 7.37864 56.6993 5.04854 58.2527 3.49515C59.8061 1.94175 61.3595 1.16505 63.6896 1.16505C65.6313 1.16505 67.1848 1.94175 68.7381 3.49515C66.4081 5.04854 64.4663 7.37864 62.9129 10.0971C61.3595 13.2039 60.5828 16.699 60.5828 20.9709C60.9712 24.466 61.7479 27.9612 63.3013 31.068ZM73.3983 29.9029C73.01 31.068 72.6216 31.8447 72.2333 32.6214C71.8449 31.8447 71.4566 31.068 71.0682 29.9029C70.2915 27.1845 69.9032 24.0777 69.9032 20.1942C69.9032 16.3107 70.2915 13.2039 71.0682 10.0971C71.4566 8.93204 71.8449 8.15534 72.2333 7.37864C72.6216 8.15534 73.01 8.93204 73.3983 9.70874C74.175 12.4272 74.9517 15.9223 74.9517 19.8058C74.5634 23.6893 74.175 26.7961 73.3983 29.9029ZM88.9323 29.9029C88.1556 32.6214 86.9906 34.9515 85.4372 36.5049C83.8838 38.0583 81.942 38.8349 80.0003 38.8349C78.0585 38.8349 76.5051 38.0583 74.9517 36.8932C77.2818 35.3398 79.2236 33.0097 80.777 30.2913C82.3304 27.1845 83.1071 23.6893 83.1071 19.8058C83.1071 15.534 82.3304 12.0388 80.777 9.32039C79.2236 6.60194 77.2818 4.66019 74.9517 3.1068C76.1168 1.94175 77.6702 1.16505 79.6119 1.16505C81.5537 1.16505 83.4954 1.94175 85.0488 3.49515C86.6022 5.04854 87.7673 7.37864 88.9323 10.0971C89.709 12.8155 90.4857 16.3107 90.4857 20.1942C90.0974 23.6893 89.709 26.7961 88.9323 29.9029Z" fill="#13131E"/>
<path d="M116.117 0.776733C123.107 0.776733 128.544 2.33013 132.039 5.82528C135.534 8.93207 137.088 13.5923 137.088 19.8059C137.088 23.6894 136.311 27.1845 134.369 30.2913C132.816 33.3981 130.097 35.7282 126.99 37.2816C123.884 38.835 120 39.6117 115.34 39.6117C114.563 39.6117 113.398 39.6117 111.456 39.6117C109.903 39.6117 108.35 39.6117 107.185 39.6117C105.631 39.6117 104.078 39.6117 102.524 39.6117C100.971 39.6117 99.806 39.6117 99.0293 39.6117V38.0583C100.194 38.0583 100.971 37.6699 101.748 37.6699C102.524 37.6699 102.524 36.8932 102.913 36.5049C103.301 35.7282 103.301 34.9515 103.301 33.3981V6.60198C103.301 5.43693 103.301 4.27188 102.913 3.49518C102.524 2.71848 102.136 2.33013 101.748 2.33013C100.971 1.94178 100.194 1.94178 99.0293 1.94178V0.776733C99.806 0.776733 100.971 0.776733 102.524 0.776733C104.078 0.776733 105.631 0.776733 107.185 0.776733C108.35 0.776733 109.903 0.776733 111.456 0.776733C113.787 0.776733 114.952 0.776733 116.117 0.776733ZM116.117 1.55343C114.563 1.55343 113.398 1.94178 113.01 2.33013C112.622 3.10683 112.233 4.27188 112.233 6.21363V33.3981C112.233 35.3398 112.622 36.5049 113.01 37.2816C113.398 38.0583 114.563 38.0583 116.117 38.0583C119.223 38.0583 121.554 37.2816 123.495 35.7282C125.437 34.1748 126.602 32.233 127.379 29.5146C127.767 27.1845 128.156 23.6894 128.156 19.8059C128.156 13.5923 127.379 9.32042 125.437 6.21363C123.495 3.10683 120.389 1.55343 116.117 1.55343Z" fill="#13131E"/>
<path d="M167.766 39.2233C165.824 39.2233 163.883 39.2233 161.553 39.2233H144.077C141.747 39.2233 139.805 39.2233 137.863 39.2233V38.0583C139.028 38.0583 139.805 37.6699 140.582 37.6699C140.97 37.2816 141.358 36.8932 141.747 36.5049C142.135 36.1165 142.135 34.9515 142.135 33.3981V6.60198C142.135 5.43693 142.135 4.27188 141.747 3.49518C141.747 2.71848 140.97 2.33013 140.582 2.33013C140.193 2.33013 139.028 1.94178 137.863 1.94178V0.776733C139.805 0.776733 141.747 0.776733 144.077 0.776733C146.407 0.776733 148.349 0.776733 150.679 0.776733L155.339 0.776733C156.892 0.776733 158.834 0.776733 161.164 0.776733C163.106 0.776733 165.048 0.776733 166.989 0.776733C166.989 2.33013 166.601 3.88353 166.601 5.43693C166.601 6.99033 166.601 8.15537 166.601 8.93207C166.601 9.70877 166.601 10.4855 166.601 10.8738C166.601 11.6505 166.601 12.0389 166.601 12.4272H165.436C165.048 9.70877 164.659 7.76702 163.883 6.21363C163.106 4.66023 161.941 3.49518 160.776 3.10683C159.611 2.33013 158.057 2.33013 156.504 2.33013H154.174C153.009 2.33013 152.232 2.33013 151.844 2.71848C151.456 2.71848 151.067 3.10683 150.679 3.88353C150.679 4.27188 150.29 5.43693 150.29 6.60198V19.4175H152.232C153.786 19.4175 154.951 19.0292 155.727 18.2525C156.504 17.4758 157.281 16.3107 157.669 15.534C158.057 14.369 158.446 13.5923 158.834 12.4272H159.999C159.999 14.369 159.611 15.9224 159.999 17.0874C159.999 18.2525 159.999 19.0292 159.999 20.1942C159.999 20.9709 159.999 22.136 159.999 23.301C159.999 24.4661 159.999 26.0195 160.388 27.9612H159.222C159.222 26.7962 158.834 25.6311 158.057 24.4661C157.669 23.301 156.892 22.5243 156.116 21.7476C155.339 20.9709 154.174 20.5826 152.621 20.5826H150.679V34.1748C150.679 35.3398 150.679 36.1165 151.067 36.5049C151.067 36.8932 151.456 37.2816 152.232 37.6699C152.621 37.6699 153.397 38.0583 154.562 38.0583H157.281C158.834 38.0583 160.388 37.6699 161.553 36.8932C162.718 36.1165 163.883 34.9515 164.659 33.3981C165.436 31.8447 166.213 29.5146 166.601 26.4078H167.766C167.766 27.5729 167.766 29.1262 167.766 31.068C167.766 31.8447 167.766 33.0097 167.766 34.5631C167.766 36.1165 167.378 37.6699 167.766 39.2233Z" fill="#13131E"/>
</svg>
