<svg width="235" height="46" viewBox="0 0 235 46" fill="none" xmlns="http://www.w3.org/2000/svg">
<path fill-rule="evenodd" clip-rule="evenodd" d="M212.783 7.21273C209.267 7.21273 198.424 8.46711 198.424 22.579C198.424 37.6317 210.146 38.2589 212.49 38.2589C213.955 38.2589 219.23 37.9453 222.746 34.1821C225.384 31.3597 226.556 27.5966 226.556 22.579C226.849 8.15347 216.299 7.21273 212.783 7.21273ZM217.179 32.3006C216.299 32.9278 215.127 33.8685 213.076 33.8685H212.783C210.732 33.8685 209.56 32.9278 208.68 32.3006C206.629 30.419 205.75 26.9694 205.75 21.9518C205.75 12.5439 210.146 10.9759 212.783 10.9759H213.076C215.713 10.9759 220.109 12.5439 220.109 21.9518C220.109 26.9694 219.23 30.419 217.179 32.3006ZM43.4084 42.9629C40.771 42.0221 36.9616 38.8861 34.9103 36.0637C32.273 32.6141 25.5332 23.2062 25.5332 23.2062C24.3611 21.9518 23.482 20.3838 22.3098 18.8158C19.3794 14.4254 16.1561 9.72145 12.6396 6.89905V38.2589H16.7421V21.9517L20.2586 26.6557C22.0168 29.1645 24.068 31.9869 25.5332 33.8685C26.7053 35.1229 29.3427 38.5725 30.2218 39.1997C34.0312 42.9628 39.8919 45.158 45.7527 45.158C48.39 45.158 50.7343 44.8444 53.0786 43.9036V43.59C52.1995 43.9036 51.0273 43.9036 50.1482 43.9036C48.097 44.5308 45.7527 43.9037 43.4084 42.9629ZM18.2073 9.4079C20.8446 12.8575 27.8775 22.2654 27.8775 22.2654C28.7566 23.5198 29.9287 25.0878 30.8078 26.6558C33.7382 31.0462 36.9616 35.7502 40.478 38.5726V7.21273H36.3755V23.5199L32.8591 18.8159C31.1009 15.9935 29.3426 13.4847 27.5844 11.6031C26.7053 10.0351 23.4819 6.89914 22.6028 5.95835C19.0864 2.19517 12.9327 0 7.07193 0C4.72763 0 2.38337 0.313595 0.0390625 1.25438V1.56798C0.918161 1.25438 2.09029 1.25438 2.96943 1.25438C5.31374 1.25438 7.36497 1.88157 9.70927 2.50876C12.3466 3.44955 16.1561 6.5855 18.2073 9.4079ZM173.223 23.2062C170 20.0702 166.19 19.443 163.553 17.5615C161.502 15.9935 161.795 13.7983 162.674 12.5439C165.018 9.4079 170 10.6623 171.172 10.9759C172.637 11.2895 173.223 11.6031 174.688 12.5439V9.0943C168.828 7.21273 159.744 5.64471 156.227 11.9167C154.762 14.4255 154.469 18.8159 158.278 21.6382C162.088 24.7742 168.828 26.3422 169.414 29.1646C170 30.7326 169.414 31.987 168.535 32.9278C165.018 36.3774 159.451 34.1822 155.934 32.6142V36.3774C159.744 38.259 164.725 38.5726 168.828 37.6318C171.758 37.0046 174.981 34.1822 175.568 30.7326C176.154 27.283 175.274 25.0878 173.223 23.2062ZM194.322 23.2062C191.098 20.0702 187.289 19.443 184.652 17.5615C182.6 15.9935 182.893 13.7983 183.772 12.5439C186.117 9.72149 190.805 10.9759 191.977 11.2895C193.443 11.6031 194.029 11.9167 195.494 12.8575V9.0943C189.633 7.21273 180.549 5.64471 177.033 11.9167C175.861 14.4255 175.568 18.8159 179.377 21.6382C183.186 24.7742 189.926 26.3422 190.512 29.1646C191.098 30.7326 190.512 31.987 189.633 32.9278C186.117 36.3774 180.549 34.1822 177.033 32.6142V36.3774C180.842 38.259 185.531 38.5726 189.926 37.6318C192.857 37.0046 196.08 34.1822 196.666 30.7326C197.252 27.283 196.373 25.0878 194.322 23.2062ZM135.129 37.6317H153.59V33.8685H141.575V24.147H151.245V20.6974H141.575V11.6031H153.59V8.15347H135.129V37.6317ZM82.3821 23.2062C79.1587 20.0702 75.3492 19.443 72.7119 17.5615C70.6607 15.9935 70.9537 13.7983 71.8328 12.5439C74.1771 9.72149 78.8657 10.9759 80.0378 11.2895C81.503 11.6031 82.0891 11.9167 83.5543 12.8575V9.0943C77.6936 7.21273 68.6094 5.64471 65.093 11.9167C63.9209 14.4255 63.3348 18.8159 67.4373 21.6382C71.2468 24.7742 77.9866 26.3422 78.5727 29.1646C79.1588 30.7326 78.5727 31.987 77.6936 32.9278C74.1772 36.3774 68.6095 34.1822 65.0931 32.6142V36.3774C68.9026 38.259 73.8842 38.5726 77.9867 37.6318C80.917 37.0046 84.1404 34.1822 84.7265 30.7326C85.0195 27.283 84.4334 25.0878 82.3821 23.2062ZM44.2875 37.6317H62.7487V33.8685H50.7342V24.147H60.4044V20.6974H50.7342V11.6031H62.7487V8.15347H44.2875V37.6317ZM99.6712 7.83992H87.6567V37.9454H93.8105V26.9694C93.8105 26.9694 103.481 27.5966 106.411 23.5199C108.462 21.0111 108.755 16.6207 107.876 13.4847C106.411 9.40794 103.188 7.83992 99.6712 7.83992ZM100.843 21.3246C99.0852 23.2062 96.1548 23.2062 93.8105 22.8926V11.6031C93.8105 11.6031 99.0851 10.3487 101.136 13.4847C102.309 15.0527 102.309 19.1294 100.843 21.3246ZM128.975 23.2062C131.026 20.6974 131.319 16.6207 130.44 13.1711C129.268 9.72149 126.044 7.83992 122.528 7.83992H110.513V37.6318H116.667V26.6559H119.598L126.044 37.6318H133.077L126.044 25.4014C126.923 24.7742 128.389 24.147 128.975 23.2062ZM123.993 21.3246C122.235 23.2062 119.305 22.8926 116.96 22.8926V11.9167C116.96 11.9167 121.942 10.6623 124.286 13.7983C125.165 15.3663 125.458 19.1294 123.993 21.3246ZM230.658 31.0462C228.607 31.0462 227.142 32.6142 227.142 34.8094C227.142 37.0046 228.9 38.5726 230.658 38.5726C232.416 38.5726 234.175 37.0046 234.175 34.8094C234.175 32.6142 232.416 31.0462 230.658 31.0462ZM230.658 37.9453C228.9 37.9453 227.435 36.3773 227.435 34.4957C227.435 32.6141 228.9 31.0462 230.658 31.0462C232.416 31.0462 233.882 32.6141 233.882 34.4957C233.589 36.6909 232.123 37.9453 230.658 37.9453ZM231.537 34.8094C231.537 34.8094 232.123 34.4958 232.123 33.8686C232.123 33.2414 231.537 32.6142 230.951 32.6142H229.193V36.691H229.779V35.123H230.951C231.537 35.123 231.83 35.4366 231.83 36.0638V36.691H232.416C232.123 36.3774 232.123 36.0638 232.123 35.4366C232.123 34.8094 231.83 34.8094 231.537 34.8094ZM230.658 34.4958H229.486V33.2414H230.658C230.951 33.2414 231.244 33.2414 231.244 33.8686C231.537 34.1822 231.244 34.4958 230.658 34.4958Z" fill="white"/>
</svg>
