<svg width="262" height="37" viewBox="0 0 262 37" fill="none" xmlns="http://www.w3.org/2000/svg">
<path d="M5.304 18.144V5.568H14.232C16.824 5.568 18.712 6.112 19.896 7.2C21.112 8.256 21.72 9.808 21.72 11.856C21.72 13.904 21.112 15.472 19.896 16.56C18.712 17.648 16.824 18.176 14.232 18.144H5.304ZM0.744 1.728V36H5.304V21.984H15.768C19.224 22.016 21.832 21.136 23.592 19.344C25.384 17.552 26.28 15.056 26.28 11.856C26.28 8.656 25.384 6.176 23.592 4.416C21.832 2.624 19.224 1.728 15.768 1.728H0.744ZM34.509 18.864C34.509 17.136 34.733 15.44 35.181 13.776C35.629 12.08 36.333 10.56 37.293 9.216C38.253 7.872 39.485 6.8 40.989 6C42.493 5.168 44.285 4.752 46.365 4.752C48.445 4.752 50.237 5.168 51.741 6C53.245 6.8 54.477 7.872 55.437 9.216C56.397 10.56 57.101 12.08 57.549 13.776C57.997 15.44 58.221 17.136 58.221 18.864C58.221 20.592 57.997 22.304 57.549 24C57.101 25.664 56.397 27.168 55.437 28.512C54.477 29.856 53.245 30.944 51.741 31.776C50.237 32.576 48.445 32.976 46.365 32.976C44.285 32.976 42.493 32.576 40.989 31.776C39.485 30.944 38.253 29.856 37.293 28.512C36.333 27.168 35.629 25.664 35.181 24C34.733 22.304 34.509 20.592 34.509 18.864ZM29.949 18.864C29.949 21.2 30.285 23.456 30.957 25.632C31.661 27.776 32.701 29.68 34.077 31.344C35.453 33.008 37.165 34.336 39.213 35.328C41.261 36.288 43.645 36.768 46.365 36.768C49.085 36.768 51.469 36.288 53.517 35.328C55.565 34.336 57.277 33.008 58.653 31.344C60.029 29.68 61.053 27.776 61.725 25.632C62.429 23.456 62.781 21.2 62.781 18.864C62.781 16.528 62.429 14.288 61.725 12.144C61.053 9.968 60.029 8.048 58.653 6.384C57.277 4.72 55.565 3.392 53.517 2.4C51.469 1.408 49.085 0.912 46.365 0.912C43.645 0.912 41.261 1.408 39.213 2.4C37.165 3.392 35.453 4.72 34.077 6.384C32.701 8.048 31.661 9.968 30.957 12.144C30.285 14.288 29.949 16.528 29.949 18.864ZM68.3378 1.728V36H72.8978V21.36H84.0338C85.1538 21.36 86.0498 21.536 86.7218 21.888C87.3938 22.208 87.9378 22.656 88.3538 23.232C88.7698 23.776 89.0738 24.432 89.2657 25.2C89.4578 25.936 89.6178 26.72 89.7458 27.552C89.9058 28.384 90.0018 29.232 90.0338 30.096C90.0658 30.96 90.0978 31.776 90.1298 32.544C90.1618 33.28 90.2258 33.952 90.3218 34.56C90.4498 35.168 90.6738 35.648 90.9938 36H96.0818C95.6018 35.424 95.2338 34.768 94.9778 34.032C94.7538 33.264 94.5778 32.464 94.4498 31.632C94.3218 30.8 94.2418 29.952 94.2098 29.088C94.1778 28.224 94.1298 27.376 94.0658 26.544C93.9698 25.712 93.8258 24.912 93.6338 24.144C93.4738 23.376 93.2018 22.688 92.8177 22.08C92.4658 21.44 91.9698 20.896 91.3298 20.448C90.7218 20 89.9218 19.68 88.9298 19.488V19.392C91.0098 18.816 92.5138 17.744 93.4418 16.176C94.4018 14.608 94.8818 12.784 94.8818 10.704C94.8818 7.92 93.9538 5.728 92.0978 4.128C90.2738 2.528 87.7298 1.728 84.4658 1.728H68.3378ZM82.4018 17.52H72.8978V5.568H84.2258C86.3698 5.568 87.9218 6.112 88.8818 7.2C89.8418 8.288 90.3218 9.696 90.3218 11.424C90.3218 12.672 90.0978 13.696 89.6498 14.496C89.2338 15.264 88.6578 15.888 87.9218 16.368C87.2178 16.816 86.3858 17.12 85.4258 17.28C84.4658 17.44 83.4578 17.52 82.4018 17.52ZM108.129 5.568V36H112.689V5.568H124.113V1.728H96.7054V5.568H108.129ZM127.916 1.728V36H132.476V20.304H148.22V16.464H132.476V5.568H150.428V1.728H127.916ZM158.118 18.864C158.118 17.136 158.342 15.44 158.79 13.776C159.238 12.08 159.942 10.56 160.902 9.216C161.862 7.872 163.094 6.8 164.598 6C166.102 5.168 167.894 4.752 169.974 4.752C172.054 4.752 173.846 5.168 175.35 6C176.854 6.8 178.086 7.872 179.046 9.216C180.006 10.56 180.71 12.08 181.158 13.776C181.606 15.44 181.83 17.136 181.83 18.864C181.83 20.592 181.606 22.304 181.158 24C180.71 25.664 180.006 27.168 179.046 28.512C178.086 29.856 176.854 30.944 175.35 31.776C173.846 32.576 172.054 32.976 169.974 32.976C167.894 32.976 166.102 32.576 164.598 31.776C163.094 30.944 161.862 29.856 160.902 28.512C159.942 27.168 159.238 25.664 158.79 24C158.342 22.304 158.118 20.592 158.118 18.864ZM153.558 18.864C153.558 21.2 153.894 23.456 154.566 25.632C155.27 27.776 156.31 29.68 157.686 31.344C159.062 33.008 160.774 34.336 162.822 35.328C164.87 36.288 167.254 36.768 169.974 36.768C172.694 36.768 175.078 36.288 177.126 35.328C179.174 34.336 180.886 33.008 182.262 31.344C183.638 29.68 184.662 27.776 185.334 25.632C186.038 23.456 186.39 21.2 186.39 18.864C186.39 16.528 186.038 14.288 185.334 12.144C184.662 9.968 183.638 8.048 182.262 6.384C180.886 4.72 179.174 3.392 177.126 2.4C175.078 1.408 172.694 0.912 169.974 0.912C167.254 0.912 164.87 1.408 162.822 2.4C160.774 3.392 159.062 4.72 157.686 6.384C156.31 8.048 155.27 9.968 154.566 12.144C153.894 14.288 153.558 16.528 153.558 18.864ZM191.947 1.728V36H214.651V32.16H196.507V1.728H191.947ZM218.811 1.728V36H223.371V1.728H218.811ZM233.681 18.864C233.681 17.136 233.905 15.44 234.353 13.776C234.801 12.08 235.505 10.56 236.465 9.216C237.425 7.872 238.657 6.8 240.161 6C241.665 5.168 243.457 4.752 245.537 4.752C247.617 4.752 249.409 5.168 250.913 6C252.417 6.8 253.649 7.872 254.609 9.216C255.569 10.56 256.273 12.08 256.721 13.776C257.169 15.44 257.393 17.136 257.393 18.864C257.393 20.592 257.169 22.304 256.721 24C256.273 25.664 255.569 27.168 254.609 28.512C253.649 29.856 252.417 30.944 250.913 31.776C249.409 32.576 247.617 32.976 245.537 32.976C243.457 32.976 241.665 32.576 240.161 31.776C238.657 30.944 237.425 29.856 236.465 28.512C235.505 27.168 234.801 25.664 234.353 24C233.905 22.304 233.681 20.592 233.681 18.864ZM229.121 18.864C229.121 21.2 229.457 23.456 230.129 25.632C230.833 27.776 231.873 29.68 233.249 31.344C234.625 33.008 236.337 34.336 238.385 35.328C240.433 36.288 242.817 36.768 245.537 36.768C248.257 36.768 250.641 36.288 252.689 35.328C254.737 34.336 256.449 33.008 257.825 31.344C259.201 29.68 260.225 27.776 260.897 25.632C261.601 23.456 261.953 21.2 261.953 18.864C261.953 16.528 261.601 14.288 260.897 12.144C260.225 9.968 259.201 8.048 257.825 6.384C256.449 4.72 254.737 3.392 252.689 2.4C250.641 1.408 248.257 0.912 245.537 0.912C242.817 0.912 240.433 1.408 238.385 2.4C236.337 3.392 234.625 4.72 233.249 6.384C231.873 8.048 230.833 9.968 230.129 12.144C229.457 14.288 229.121 16.528 229.121 18.864Z" fill="white"/>
</svg>
