<svg width="273" height="56" viewBox="0 0 273 56" fill="none" xmlns="http://www.w3.org/2000/svg">
<path d="M20.375 56C17.375 56 14.5 55.5 11.875 54.625C9.125 53.75 6.75 52.375 4.75 50.75C2.75 49.125 1.25 47.125 0.375 45C-0.125 44 -0.125 43.125 0.375 42.25C0.875 41.375 1.75 40.875 2.875 40.625C3.75 40.5 4.5 40.625 5.375 41C6.25 41.5 6.75 42.125 7.25 43C7.75 44.125 8.75 45.25 10 46.25C11.25 47.25 12.875 48 14.625 48.625C16.5 49.25 18.375 49.5 20.375 49.5C22.625 49.5 24.625 49.125 26.625 48.5C28.5 47.75 30 46.75 31.25 45.5C32.375 44.125 33 42.5 33 40.625C33 38.125 32 35.875 30.125 34C28.25 32 25 30.875 20.625 30.375C14.875 29.875 10.25 28.125 7 25.25C3.625 22.375 2 18.875 2 14.625C2 11.5 2.875 8.875 4.625 6.75C6.375 4.625 8.75 3 11.625 1.875C14.625 0.75 17.875 0.25 21.5 0.25C24.375 0.25 26.875 0.625 29 1.5C31.125 2.25 33 3.375 34.625 4.75C36.25 6.125 37.625 7.75 38.75 9.75C39.375 10.75 39.625 11.75 39.5 12.625C39.375 13.5 38.875 14.25 38.125 14.75C37.25 15.25 36.25 15.375 35.25 15.125C34.25 14.75 33.5 14.25 33 13.25C32.25 11.875 31.375 10.75 30.25 9.875C29.125 9 27.875 8.25 26.5 7.625C25 7.125 23.375 6.875 21.375 6.875C17.875 6.875 15 7.5 12.75 8.75C10.375 10.125 9.25 12.125 9.25 14.875C9.25 16.25 9.625 17.625 10.375 18.875C11.125 20.125 12.375 21.25 14.375 22.25C16.25 23.125 19.125 23.875 22.75 24.25C28.25 24.75 32.625 26.5 35.75 29.375C38.875 32.25 40.375 35.875 40.375 40.5C40.375 43.125 39.875 45.5 38.75 47.375C37.625 49.375 36.125 51 34.375 52.25C32.5 53.625 30.375 54.625 28.125 55.25C25.375 55.625 22.875 56 20.375 56Z" fill="white"/>
<path d="M67.875 55.625C64.125 55.625 60.75 54.75 57.875 53.125C55 51.5 52.75 49.125 51 46.25C49.375 43.375 48.5 40 48.5 36.25C48.5 32.375 49.375 29 51 26.125C52.625 23.25 54.875 20.875 57.875 19.25C60.75 17.625 64.125 16.75 67.875 16.75C71.625 16.75 74.875 17.625 77.875 19.25C80.75 20.875 83 23.25 84.75 26.125C86.375 29 87.25 32.375 87.25 36.25C87.25 40 86.375 43.375 84.75 46.25C83.125 49.125 80.875 51.5 78 53.125C74.875 54.75 71.625 55.625 67.875 55.625ZM67.875 49.25C70.25 49.25 72.5 48.75 74.375 47.625C76.25 46.5 77.75 45 78.75 43C79.75 41 80.375 38.75 80.375 36.25C80.375 33.625 79.875 31.375 78.75 29.375C77.75 27.375 76.25 25.875 74.375 24.75C72.5 23.625 70.375 23.125 67.875 23.125C65.5 23.125 63.25 23.625 61.375 24.75C59.5 25.875 58 27.375 57 29.375C55.875 31.375 55.375 33.625 55.375 36.25C55.375 38.875 55.875 41.125 57 43C58.125 45 59.5 46.5 61.375 47.625C63.25 48.75 65.375 49.25 67.875 49.25Z" fill="white"/>
<path d="M115.125 55.625C111.375 55.625 108.125 54.75 105.125 53.125C102.25 51.375 99.875 49.125 98.25 46.25C96.625 43.375 95.75 40 95.75 36.375C95.75 32.625 96.625 29.25 98.25 26.25C99.875 23.25 102.125 21 105 19.375C107.875 17.75 111.125 16.875 114.75 16.875C117.5 16.875 120 17.375 122.25 18.5C124.5 19.5 126.625 21.125 128.375 23.25C129 24 129.25 24.75 129.125 25.5C129 26.25 128.375 27 127.625 27.625C127 28.125 126.25 28.25 125.5 28.125C124.75 28 124 27.5 123.375 26.875C121.125 24.5 118.25 23.25 114.875 23.25C112.5 23.25 110.375 23.75 108.625 24.875C106.75 26 105.375 27.5 104.375 29.5C103.375 31.5 102.875 33.75 102.875 36.375C102.875 38.875 103.375 41.125 104.5 43.125C105.5 45.125 107 46.625 108.875 47.75C110.75 48.875 112.875 49.5 115.375 49.5C117 49.5 118.5 49.25 119.625 48.875C120.875 48.5 122 47.875 123 47C123.75 46.375 124.5 46 125.25 46C126 45.875 126.75 46.125 127.375 46.625C128.125 47.25 128.625 48 128.75 48.875C128.875 49.75 128.625 50.375 127.875 51.125C124.25 54 120.125 55.625 115.125 55.625Z" fill="white"/>
<path d="M157.125 55.625C153.375 55.625 150 54.75 147.125 53.125C144.25 51.5 142 49.125 140.25 46.25C138.625 43.375 137.75 40 137.75 36.25C137.75 32.375 138.625 29 140.25 26.125C141.875 23.25 144.125 20.875 147.125 19.25C150 17.625 153.375 16.75 157.125 16.75C160.875 16.75 164.125 17.625 167.125 19.25C170 20.875 172.25 23.25 174 26.125C175.625 29 176.5 32.375 176.5 36.25C176.5 40 175.625 43.375 174 46.25C172.375 49.125 170.125 51.5 167.25 53.125C164.25 54.75 160.875 55.625 157.125 55.625ZM157.125 49.25C159.5 49.25 161.75 48.75 163.625 47.625C165.5 46.5 167 45 168 43C169 41 169.625 38.75 169.625 36.25C169.625 33.625 169.125 31.375 168 29.375C167 27.375 165.5 25.875 163.625 24.75C161.75 23.625 159.625 23.125 157.125 23.125C154.75 23.125 152.5 23.625 150.625 24.75C148.75 25.875 147.25 27.375 146.25 29.375C145.125 31.375 144.625 33.625 144.625 36.25C144.625 38.875 145.125 41.125 146.25 43C147.375 45 148.75 46.5 150.625 47.625C152.625 48.75 154.75 49.25 157.125 49.25Z" fill="white"/>
<path d="M204.375 55.625C200.75 55.625 197.5 54.75 194.5 53.125C191.625 51.375 189.25 49.125 187.625 46.125C185.875 43.125 185.125 39.875 185.125 36.125C185.125 32.5 185.875 29.125 187.5 26.25C189.125 23.375 191.25 21 193.875 19.375C196.625 17.625 199.625 16.875 203 16.875C205.75 16.875 208.25 17.5 210.625 18.625C213 19.75 214.875 21.375 216.5 23.25V4.25C216.5 3.125 216.875 2.375 217.5 1.625C218.125 1 219 0.625 220 0.625C221.125 0.625 221.875 1 222.625 1.625C223.25 2.25 223.625 3.125 223.625 4.25V36.125C223.625 39.75 222.75 43.125 221.125 46.125C219.375 49.125 217.125 51.375 214.25 53.125C211.25 54.75 208 55.625 204.375 55.625ZM204.375 49.25C206.75 49.25 208.875 48.625 210.75 47.5C212.625 46.375 214.125 44.75 215.125 42.75C216.25 40.75 216.75 38.5 216.75 36C216.75 33.5 216.25 31.25 215.125 29.25C214 27.25 212.625 25.75 210.75 24.625C208.875 23.5 206.75 22.875 204.375 22.875C202 22.875 199.875 23.5 198 24.625C196.125 25.75 194.625 27.375 193.5 29.25C192.375 31.25 191.875 33.5 191.875 36C191.875 38.5 192.375 40.75 193.5 42.75C194.625 44.75 196.125 46.375 198 47.5C200 48.75 202 49.25 204.375 49.25Z" fill="white"/>
<path d="M252.25 55.625C248.875 55.625 245.75 54.75 243.125 53.125C240.375 51.375 238.25 49.125 236.75 46.25C235.125 43.375 234.375 40 234.375 36.375C234.375 32.75 235.25 29.375 236.875 26.375C238.625 23.375 240.875 21.125 243.75 19.375C246.625 17.625 250 16.875 253.625 16.875C257.25 16.875 260.5 17.75 263.375 19.375C266.25 21.125 268.625 23.375 270.25 26.375C272 29.375 272.75 32.625 272.75 36.375H270C270 40 269.25 43.375 267.625 46.25C266 49.125 263.875 51.5 261.25 53.125C258.625 54.75 255.625 55.625 252.25 55.625ZM253.625 49.25C256 49.25 258.125 48.625 260 47.5C261.875 46.375 263.375 44.75 264.375 42.75C265.5 40.75 266 38.5 266 36.125C266 33.625 265.5 31.375 264.375 29.375C263.25 27.375 261.875 25.875 260 24.625C258.125 23.5 256 22.875 253.625 22.875C251.25 22.875 249.125 23.5 247.25 24.625C245.375 25.75 243.875 27.375 242.75 29.375C241.625 31.375 241.125 33.625 241.125 36.125C241.125 38.625 241.625 40.875 242.75 42.75C243.875 44.75 245.375 46.25 247.25 47.5C249.125 48.75 251.25 49.25 253.625 49.25ZM269.25 55.375C268.25 55.375 267.375 55 266.75 54.375C266.125 53.75 265.75 52.875 265.75 51.875V41.125L267.125 33.75L272.875 36.25V51.875C272.875 52.875 272.5 53.75 271.875 54.375C271.125 55 270.25 55.375 269.25 55.375Z" fill="white"/>
</svg>
